<svg xmlns="http://www.w3.org/2000/svg" viewBox="0 0 456.65 456.17"><defs><style>.cls-1{fill:#ff9280;}.cls-2{fill:#fee1c1;}.cls-3{fill:#255613;}.cls-4{fill:#dd0101;}.cls-5{fill:#fb7f12;}.cls-6{fill:#ab0101;}</style></defs><g id="Layer_2" data-name="Layer 2"><g id="Colored_long" data-name="Colored long"><g id="Layer_11" data-name="Layer 11"><g id="Layer_23" data-name="Layer 23"><path class="cls-1" d="M40.11,218.09C40.11,103.84,127.93,15.86,235,18.65c105.59,2.75,194.5,93.15,200,204.72,5.63,114.75-78.6,210.2-189.67,210.2C132.61,433.57,40.11,335.69,40.11,218.09Z"/><g id="Layer_19" data-name="Layer 19"><path class="cls-2" d="M159.43,234.17c-31.67,1.92-14.26,54.27-1.83,69,16,18.94,43.15,41.56,68.69,39.23,29.72-2.71,27.18-38,24.79-59.86a24.38,24.38,0,0,1,.6-8.87,20.56,20.56,0,0,1,.92-2.71c7.63-12.36,22.63-18.36,35.69-12.79a26.61,26.61,0,0,1,3.58,1.6,25.54,25.54,0,0,1,6.36,4.83c13,13.56,16.49,30.1,31.94,11.8,9.95-11.78,23.79-28.54,25.79-44.44,3-23.86-1.06-34.36-14.48-51.37-3.84,1.15-6.45-2.59-8.08-5.46-10.69,3.93-18,15.25-28.67,19.62-14.35,5.88-23.16-8.3-28.5-17.15-2.18-3.61-3.81-14.63-4.71-17.23-2.07-6,.64-13,1.54-19.08,1.83-12.14,6.55-26.89-5.12-35.27-10.38-7.47-29.58-7.08-42.69-8.79-15.69-2-24,7.49-36.3,16.7-8,6-15.22,9.59-19.28,19.48s-1.91,19.47,5.73,26.86c8,7.76,20.82,10.51,27.1,20.06,4.57,6.95,4.18,13.5,3.67,22-.3,5,3.44,17,1.05,21C200.25,235.16,174.59,224.65,159.43,234.17Z"/></g><path class="cls-3" d="M86,54.3a5.11,5.11,0,0,1-.88,1.18c-1.84,1.81-4.65,1.79-7,1.31-3.59-.73-7.06-2-10.65-2.72-6.41-1.38-13-2.46-19.1-4.85-5.11-2-9.4-5.68-14.62-7.46a16.83,16.83,0,0,0-9.59-.24,29.91,29.91,0,0,0-4.58,1.59c-1.13.49-3.05.61-3.5,2a.82.82,0,0,0,.15.81,1.11,1.11,0,0,0,.5.24c1.09.27,2.09-.13,3.18,0,5.77.51,10.74,3.65,14.78,7.63C41,60.07,48,65.43,54.29,71.86,61.55,79.29,69.94,83.18,80.48,81c9-1.85,18-11.16,24.79-17a44.14,44.14,0,0,0,8.83-9.54c3.74-5.94,3.48-13.12,2.1-19.74-1.52-7.32-4.13-14.38-6.07-21.59a12,12,0,0,1-.66-2.75c-.16-.78-.91-10.68-2.06-10.34-.57.17-.71,1.17-.77,1.64-.5,4.47.09,9-.16,13.47a103.29,103.29,0,0,1-3.24,18.72,14.25,14.25,0,0,1-1.52,3.9,5.07,5.07,0,0,1-2.28,2.14c-1.75.75-3.75.12-5.41-.59a22.34,22.34,0,0,1-6.77-4.69,31.39,31.39,0,0,1-2.72-3c-.72-.92-1.32-2.29-2.41-2.81-2-.94-.7,2.49-.44,3.2A100.65,100.65,0,0,1,85.6,44c.66,2.77,1.62,5.66,1,8.52A6.57,6.57,0,0,1,86,54.3Z"/><path class="cls-4" d="M447.41,174.76a321.55,321.55,0,0,0-31.16-73.42c-18.44-31.75-49.56-52.43-82.64-66.63-27.55-11.83-57.43-23.6-87.36-27.43a149.23,149.23,0,0,0-32.86-.67C131.46,14.47,72.3,61.42,29.07,129c-14.53,22.7-20.6,47.64-24.48,74-4,27.17-7.46,53.77-1,80.89,6,25.07,18,48.85,30.87,71C72.05,419.38,160.3,453,231.87,456c63.76,2.7,114.81-25.31,158.66-69.37,22.84-23,40.21-54.56,52.46-84.36,8-19.35,13.13-39.95,13.61-60.94C457.1,219.59,453.62,196.89,447.41,174.76ZM242.73,413.5c-97-5.1-178.18-89.42-183.81-191.27C53.11,117.14,129.3,29.47,231.84,29.47c105.5,0,193.28,92.24,193.28,202.65C425.12,339,342.35,418.72,242.73,413.5Z"/><g id="Layer_18" data-name="Layer 18"><path class="cls-5" d="M236.23,319.57c-5.77-1.57-19.68-1-24-3-6-2.83-3.6,18.4,0,26.89,8.77,20.48,33.74-10.14,19.68-16.2"/><path class="cls-5" d="M202.23,313.57c-1.95-1-13.39-10.27-17-12-4.86-2.32-12.91,16.63-11.91,21.83,1.54,8,10.21,7.58,16.37,5.57,3.74-1.22,16.21-11,8.31-14.06"/><path class="cls-5" d="M164.06,284.06c-12.24.36-17.1,27.31-2.67,27.8,7.67.25,18.37-8.4,15.84-14.29-2.42-5.64-8.34-8.55-11-16-.95.34-3.63,3.41-4.49,4"/><path class="cls-5" d="M144,257.83c-12.26-3.24-21.79,24.38-4.63,26.26,3.94.44,6.42-1.24,9.55-3.21,4.71-3,13.23-2.48,10.31-7.31a50.91,50.91,0,0,1-6-16"/><path class="cls-5" d="M343.23,253.57c1.63,0-3.17,14.35-11,18-6.85,3.19,6.88,16.42,17,15.42,21.07-2.09,8.75-30.47,0-23"/><path class="cls-5" d="M353.23,231.57c-2.52-2.18-3.06,13.16-9,19-4.56,4.48,10,13.36,17.3,13.45,16.85.2,6.86-27.47-2.3-23.94"/><path class="cls-5" d="M353.23,204.57c.28-5.55,2.53,13-1,24-.76,2.39,8.42.48,11.23,1.88,7.18,3.56,13.52.33,16-7.34,1.69-5.2-2.64-19.8-9.45-13.88"/><path class="cls-5" d="M343.23,176.57c-4.85,4-11.43.77-5,4,2,1,2.44,4.35,5,8,5.32,7.58,12.53,18,11,22-5.18,13.63,35.18-29.07,13-34"/><path class="cls-5" d="M272.23,79.57c-5-7.9-15.2,3.85-16.35,8.52-.8,3.26-9.28,18.69-5.65,19.48,5.52,1.2,19.68,6.58,21,4C274,106.15,272.84,84.28,272.23,79.57Z"/><path class="cls-5" d="M236.57,78.86c-10.63-3.19-17.32,28.71-4.34,28.71a118,118,0,0,1,16,1c6.86.86-5.08-23.15-5.6-28.83-2-.51-4-1.27-5.1-1.58,0,1.83-.8.9-1.73,1.47"/><path class="cls-5" d="M212.66,80.4c-8-8.29-22.39,45.82-5.43,32.17,3.84-3.09,15.11-3.54,20-7,5.83-4.12-9.18-20.07-14.59-25.62,0,1.29-.64.53-1.53,1.22"/><path class="cls-5" d="M183.34,94.28c-8-7.5-21.65,11.3-13.89,20.45,3.58,4.23,11.13,15.84,17.78,13.84,5.17-1.56,11.14-12.6,15-15-5.82-3.41-11.56-18.77-19.66-20.83"/><path class="cls-5" d="M161.74,115.11c-4.34,3.36-9.2,6.46-9.19,12.73,0,7.18,15.38,24.56,17.68,17.73,1.28-3.8,12-15,17-16,5.43-1.09-21.9-15.61-26.26-12.91"/></g><path class="cls-6" d="M298,94c0,.58-.06,1.16-.11,1.74-.83,9.89-6.25,18.47-9.62,27.6-1.67,4.49-2.47,9-4.5,13.4-2.46,5.33-5.21,10.55-7.05,16.14-1.13,3.44-2.05,17.19-8.76,13.85a8,8,0,0,1-3.2-3.38c-3.81-6.76-2.55-10.47,1.64-16.23a25.14,25.14,0,0,0,3.33-7.9q1.74-6,3.47-11.9c.83-2.85,1.65-6,.5-8.68a10.57,10.57,0,0,0-5.64-4.8c-1.54-.67-3.49-.47-4.9-1.39-4.21-2.76,8.52-13.59,8.94-17.26A8.76,8.76,0,0,0,265.73,86c-12.34-3-10.71,14-12.29,20.85-.86,3.7-12.09,3.15-12.81-.54-.55-2.84,2.06-6.08,2.88-8.67,1.25-4,1.65-7.62-1.18-11.13-3-3.74-7.47-4.42-9.74.24-1.94,4-.87,8.29.52,12.26.73,2.07,3.14,6.67.56,8.39-2.29,1.52-8,1-10.6.64-3.67-.5-4.49-6.31-4.52-9.29-.05-4.11-.14-10.94-4-13.63-4-2.78-9.16.54-10.6,4.48-2.07,5.68-.41,7.62,3.69,11.87,2.84,2.94,6.71,7.07,2.83,10.36-2.69,2.29-6.61,2.83-9.64,4.4-4.73,2.44-11.28-6.65-13-10.21-1.57-3.36-3.68-7-7.27-7.92a7.36,7.36,0,0,0-7.7,3,7.91,7.91,0,0,0,.25,9.11c2,2.6,5.4,3.61,8.49,4.73a63.54,63.54,0,0,1,8.46,3.8c2.34,1.26,5.2,3.64,2.92,6.27-3.61,4.17-7.63,8.31-13.69,5.79-7.58-3.16-5.92-14-16.88-11.3-7.14,1.78-10.14,11-3.23,15.34,3,1.89,14.35.11,15.32,3.88.36,1.38-1.43,3.33-1.9,4.61-1.14,3.17-1.41,6.27.12,9.38,1.68,3.44,5,5.72,8,8,3.42,2.56,6.69,6.55,10.44,8.44,5.74,2.88,12.69-.35,17.67,4.55,3.41,3.36,4,8.91,2.82,13.37a4.53,4.53,0,0,1-.85,1.83c-5,5.54-22.12-10.22-26-12.93-10.41-7.3-20.39-15.35-31-22.37-8-5.35-18.42-9.13-22.91-18.34-2.92-6-2.5-13.13-.94-19.63,2.9-12,6.64-24.44,14.78-34,8.4-9.92,24.66-15.55,36.55-20.29C193,56.64,204.64,51.48,217.07,50s25.07,2.15,37.43,3.66c10.64,1.3,20.54,3.63,28.82,10.9C291.84,72,298.33,82.44,298,94Z"/><path class="cls-6" d="M261.28,355.31c-5,6.33-11.62,14.12-18.81,17.9-8.28,4.36-14.41,1.74-22.77.34-6.67-1.11-13.35-1-20-2.71-8.91-2.24-17.38-6.29-25.24-11-28.59-13.68-47.89-39.79-62.8-67.41-1.24-2-2.4-4.12-3.43-6.22-4.16-8.42-6.51-17.43-5.88-27.19a29.36,29.36,0,0,1,1.17-7.08,23.55,23.55,0,0,1,3-6.44c3.93-5.8,10.29-9.45,16.7-12.3a112.19,112.19,0,0,1,41.63-9.55c10.15-.34,20.33.72,30.47.11,5.15-.3,10.33-1,15.43-.34,2.24.31,4.95,1.56,4.76,3.8a4.1,4.1,0,0,1-2.11,2.84c-4.6,3.06-10.52,2.92-16,3.1-9.13.29-17.39,3.89-25.68,7.35-5.88,2.46-19.57,2.31-20.29,10.81-.26,3.21,5.4,8.41,1.64,10.47-2.2,1.22-5.61-.78-7.94-.29-6,1.24-12.59,6-9.66,12.77,3.15,7.25,9.77,4.44,14.91,1.12,2.17-1.38,5-5.18,7.62-5.48,3.61,0,11.35,10.37,8.49,12.78-5.33,4.5-13.9,11.13-9.89,19.06,2.56,5.09,6.62,7.68,11.32,3.51,3.56-3.13,4.14-14.22,10.19-12.12,3.13,1.08,13.94,7.85,10,12s-12.07,8.22-12.59,14.65c-1.1,13.39,14.57,9.4,18.39.32,1.34-3.19,3.07-11.39,7.93-9.26,5.35,2.35,16.83,2.1,16.46,10.1-.29,5.78-6.71,12.5-3.23,18.26a9,9,0,0,0,12.27,2.64c5.42-3.43,4.17-9.06,2.91-13.86-.6-2.28-1.71-6-1.19-8.4.6-2.74,3.56-2.07,5.62-2.52a50.4,50.4,0,0,0,6.45-1.45,13.59,13.59,0,0,0,5-3.39,20.92,20.92,0,0,0,5-17.09c-1-5.74-5.36-9.52-7.14-14.9s.26-10.45,3.7-14.51a4.68,4.68,0,0,1,2.43-1.77,3.32,3.32,0,0,1,3.17,1.49,9.31,9.31,0,0,1,1.32,3.42c4.92,21,4.88,42.94,9.12,64.13a55.88,55.88,0,0,1,1.18,9.16C265,346.82,264.14,351.67,261.28,355.31Z"/><path class="cls-6" d="M401.41,253.38a83.89,83.89,0,0,1-2.41,9.51c-7.49,23.9-9.94,50.73-38.84,56.71a30.44,30.44,0,0,1-8.81.77c-6.15-.56-13.12.27-18.93-1.76-6.42-2.24-12.18-6.82-16.81-11.71a99.27,99.27,0,0,1-18.36-28.63c-2.39-5.63-3.32-11.95-7.26-16.84-2.74-3.39-6.7-5.77-8.84-9.57a6.54,6.54,0,0,1-1-3.59,3.4,3.4,0,0,1,2-3,4.58,4.58,0,0,1,2.3-.11c8.21,1.23,15.27,8.42,19,15.47,4.12,7.78,12.12,17.43,22.57,13.65,6.74-2.44,7.64-8.69,12,0,2.3,4.61,1.93,8.87,8.56,9,6.24.1,10.83-5.24,8.94-11.35-2.14-7-13.25-7.59-14.41-13.23a6.31,6.31,0,0,1,.62-3.47c.45-1.2.92-2.38,1.37-3.57,1.89-4.94,5.87-3.65,7.83.67.95,2.08,1.4,4.38,2.72,6.24,6,8.58,18.58-.48,15.18-9.37-3.24-8.46-19-2.59-20.17-9.47a7.94,7.94,0,0,1,.39-3.37c.81-3.09,1.61-6.18,2.42-9.26,2.11-8.09,9.66.81,13.33,2,9.87,3.23,14.74-13.62,4.6-16.66-4.84-1.45-13.83,3.88-16.84-2.35a13.56,13.56,0,0,1-1-5.41c0-1,0-6.31,1.66-7.11,4.49-2.13,10.19-.12,14.53-2.6,4.16-2.37,3.45-9.77.11-12.6a10.55,10.55,0,0,0-5.18-2.21c-3.43-.54-8.14.24-9.37,4-.39,1.21-.07,2.49-.63,3.67a4.63,4.63,0,0,1-3.06,2.34c-2.83.75-7,.11-9.06-2.17-.57-.64-1.18-1.25-1.73-1.9-1.4-1.65-2.47-3.66-4.33-4.76-6-3.58-14.16,6.51-18.32,9.79-5.44,4.28-14.95,15.83-22.64,12.42a4.23,4.23,0,0,1-2.69-4.19c.6-3.87,6.39-5.62,8.94-7.82,3.63-3.14,7-6.58,10.44-9.9,4.54-4.39,9.14-10,14.52-13.37,5.77-3.62,12.21-5.86,18.51-8.36,11.55-4.58,19.94-11.67,32.68-6.13,13.06,5.67,16,19.81,19.22,32.29C400.75,207.79,405.75,231,401.41,253.38Z"/></g></g></g></g></svg>