<svg xmlns="http://www.w3.org/2000/svg" viewBox="0 0 624.61 537.39"><defs><style>.cls-1{fill:none;}</style></defs><g id="Layer_2" data-name="Layer 2"><g id="Layer_5" data-name="Layer 5"><path class="cls-1" d="M388.66,136.48c-.44,1.92-.81,3.86-1.17,5.75a469.23,469.23,0,0,1-15.05,58c-11,34.06-25.23,67-39.4,99.89l-17.11,39.72c-7.45,17.29-15,34.77-26.42,49.74-2.42,3.17-5,6.25-6.92,9.76,0-.09,0-.18-.07-.27-.19-.74-.38-1.48-.56-2.22s-.36-1.44-.53-2.17a168.76,168.76,0,0,1-3.34-18.5c-.08-.56-.15-1.12-.2-1.68-.13-1.09-.24-2.18-.33-3.28q-.1-1.06-.18-2.13c-.07-.84-.12-1.67-.17-2.51v-.06c0-.85-.09-1.69-.12-2.54,0-.52,0-1,0-1.55l0-1.23c0-1.24,0-2.48,0-3.73.38-36.41,16.44-66.91,29.85-99.69,12.55-30.69,20.88-62.37,41.77-89.22.69-.88,1.4-1.76,2.15-2.64.31-.38.64-.76,1-1.14.72-.83,1.48-1.66,2.27-2.49.31-.34.63-.67,1-1s1-1,1.46-1.48q1.08-1.07,2.22-2.13l.38-.35,1.13-1c1.37-1.23,2.78-2.45,4.25-3.65q.7-.6,1.44-1.17c1.56-1.25,3.18-2.48,4.84-3.7l1.18-.84q3.72-2.67,7.72-5.16l1.48-.91,2.35-1.41,1.65-.95C386.26,137.79,387.45,137.13,388.66,136.48Z"/><path class="cls-1" d="M509.74,141.33c-.71,3.74-1,7.58-1.41,11.36-.81,6.72-1.89,13.41-3.16,20.05a377,377,0,0,1-9.9,39.33c-8,26.05-18.25,51.32-28.95,76.34-5.23,12.22-10.3,24.55-16.11,36.51a135.78,135.78,0,0,1-21.58,32.6c-4.48,4.92-9.2,9.62-13.7,14.53a171.9,171.9,0,0,0-12.7,15.68c-7.83,10.85-15.1,22-23.18,32.73a483.17,483.17,0,0,1-52.55,58.73l-.06.06-.84-.64-.93-.72q-1.95-1.54-3.82-3.23c-.31-.27-.62-.55-.92-.84s-.76-.7-1.13-1.07c-.86-.82-1.71-1.68-2.55-2.56-10.37-10.92-17.07-24.77-22.75-38.71-.55-1.36-1.1-2.72-1.63-4.09s-1.06-2.74-1.58-4.12c.94-2.94,1.93-5.86,3-8.73,5.74-15,14.37-28.61,21.79-42.81,19.35-37,30.47-77.63,43.68-117.24s29.1-79.28,56.15-111.1c5.83-6.85,12.44-13.91,14.49-22.5l2.11-.48,1.47-.31c1.2-.25,2.39-.48,3.58-.69s2.32-.41,3.48-.58q3.72-.57,7.43-.92l1.57-.13c2.29-.18,4.57-.3,6.84-.34l1.91,0q4.77,0,9.41.45c1.28.12,2.53.28,3.75.46.41,0,.82.12,1.22.19l.86.14c.84.15,1.67.31,2.49.49.38.07.75.16,1.12.24s.78.18,1.16.29a1.14,1.14,0,0,1,.25.06c.44.1.87.22,1.29.34s1,.27,1.44.42l1.4.44.13,0,1.29.45c.67.24,1.32.49,2,.75s1.06.43,1.58.66l1.54.7c.5.24,1,.49,1.5.75,1,.54,2.06,1.11,3,1.7.36.21.71.43,1.06.65l1.67,1.11.89.63c.94.68,1.84,1.38,2.72,2.11q.61.49,1.2,1a58,58,0,0,1,6.24,6.4c.31.37.62.74.91,1.12s.61.75.9,1.14S509.46,140.94,509.74,141.33Z"/><path class="cls-1" d="M562.22,247.13c-2.92,2.05-5.31,4.93-7.75,7.43q-11,11.28-22.73,21.78l-1.13,1L516.5,287.67C501,299,485.58,310.38,470.55,322.3q-5.94,3.72-12,7.26c4.88-8.87,9.66-17.81,14-27a270.31,270.31,0,0,0,14-36.94c2-6.44,3.91-12.89,6.29-19.2s5.17-12.36,8.05-18.4c5.66-11.89,11.32-23.8,17.72-35.31,2.8-5.05,5.9-9.89,9-14.76,2,5.4,4,10.88,6.16,16.3.34.86.68,1.71,1,2.56.15.39.31.78.48,1.16.3.73.61,1.45.93,2.17.22.51.44,1,.67,1.52.54,1.22,1.1,2.44,1.68,3.65.42.88.84,1.76,1.27,2.64.55,1.14,1.12,2.26,1.7,3.38s1.13,2.22,1.72,3.32c.44.85.89,1.69,1.35,2.53C550.09,227.37,556.21,237.23,562.22,247.13Z"/><path class="cls-1" d="M591.69,310.87,545,380.68l-24.91,37.2c-7.39,11-14.76,22.12-21.37,33.66a204.15,204.15,0,0,0-15.44,32.9q-3.51,1.11-7.05,2.14l-2.55.75-2.68.76-1.88.51-2.74.74-3.31.86-2.5.62q-6.91,1.71-13.9,3.11l-3,.59-3,.56-3,.53a230.69,230.69,0,0,1-48.65,3.4c-1.08-.05-2.17-.11-3.25-.18A148.69,148.69,0,0,1,370.12,497l-1.54-.28-1.66-.31q-5.82-1.15-11.44-2.84l-1.54-.47-2-.65c-.81-.28-1.61-.56-2.4-.85l-2-.75-1.54-.62-1.54-.64c3.81-17.27,14.48-32.65,25.83-46,14.54-17,30.74-32.63,41.7-52.4,2.87-5.18,5.59-10.44,8.94-15.33a104.83,104.83,0,0,1,10.57-12.84c8-8.43,16.91-16.08,25.79-23.57q7.83-6.61,15.86-13a459.46,459.46,0,0,0,61.24-45.92q4.92-3.6,9.89-7.13a47.76,47.76,0,0,1,7.42-4.47c2.75-1.27,5.63-2.19,8.4-3.42a40.74,40.74,0,0,0,9.55-5.95q1.69,2.93,3.34,5.86c.49.88,1,1.75,1.46,2.63l1.89,3.53c.48.91,1,1.82,1.42,2.74,1.66,3.24,3.25,6.52,4.74,9.85.27.6.54,1.21.8,1.81l.87,2,.69,1.69q.39.93.75,1.86l.72,1.87c.18.48.37,1,.55,1.46,1.2,3.3,2.3,6.65,3.26,10.07.19.63.36,1.27.53,1.91s.35,1.31.51,2S591.54,310.23,591.69,310.87Z"/><path class="cls-1" d="M576.76,434.41c-11.37,16.68-27.08,23.69-45.07,31.62l-3,1.32-3,1.31q-9.15,3.9-18.5,7.47a125.81,125.81,0,0,0,4.72-14.21,230.64,230.64,0,0,1,76.31-114.54,96.53,96.53,0,0,0,8.29-7.17c.06.65.11,1.3.16,2,.09,1.07.16,2.13.22,3.2.11,1.64.18,3.28.24,4.93,0,.84.06,1.67.08,2.51,0,1,0,2,.05,3C597.43,382.94,592.29,411.65,576.76,434.41Z"/><path d="M483.7,490.93l-.76,0,.54.7q-.28.9-.54,1.8a17.73,17.73,0,0,0,1.8-.13l.61.79c.09-.31.18-.62.28-.93.27-.92.55-1.84.85-2.76A15.27,15.27,0,0,1,483.7,490.93Z"/><path d="M624.14,355.23c-5.11-56.84-43.69-107.18-58.5-162-11.17-41.36-24.69-89.55-73.1-98.76-11.91-2.26-25.14-2.81-39.57-3a659.74,659.74,0,0,1-71-4.68l40.14-27L385.35,1.48l-58,32.4L277.55,0,229.13,49.3,264,82.49a203,203,0,0,0-26.29,7,373.39,373.39,0,0,0-53.6,23.4l4.91-6.2-57-41.4L90.51,120.79l-64-8.72L0,164.27l65,28.78C35,222.84,15.66,258.89,9.61,308.67c-2.75,22.61-9.32,47.92.22,68.61,8.83,19.16,24.71,41.61,39.78,56.39l.46.44c7.4,9.49,14.09,19.53,21.14,30.11,4.65,7,9.46,14.2,14.46,21.2,6.79,9.49,13.27,16.86,27.06,16.86a45.87,45.87,0,0,0,5.54-.36,100.16,100.16,0,0,0,17.15-4.06c3.17-1,6.17-1.87,9.09-2.51a24.08,24.08,0,0,0,3.89-1.23l1.65.43c20.62,5.15,40.93,10.85,61.25,16.18,13.69,11.42,29.33,22,45.52,25.48a46.55,46.55,0,0,0,9.79,1.18c4.66,0,8.65-1,13.74-2.7a41.42,41.42,0,0,1,5.66-.93c5.27-.64,11.22-1.37,16.07-4.69,7.35.81,14.76,1.41,22.25,1.76a461.61,461.61,0,0,0,143.91-16c40.33-11.14,85.85-22.75,116.06-53.47C611.64,433.55,627.62,394.07,624.14,355.23ZM527.58,178c2,5.4,4,10.88,6.16,16.3.34.86.68,1.71,1,2.56.15.39.31.78.48,1.16.3.73.61,1.45.93,2.17.22.51.44,1,.67,1.52.54,1.22,1.1,2.44,1.68,3.65.42.88.84,1.76,1.27,2.64.55,1.14,1.12,2.26,1.7,3.38s1.13,2.22,1.72,3.32c.44.85.89,1.69,1.35,2.53,5.51,10.16,11.63,20,17.64,29.92-2.92,2.05-5.31,4.93-7.75,7.43q-11,11.28-22.73,21.78l-1.13,1L516.5,287.67C501,299,485.58,310.38,470.55,322.3q-5.94,3.72-12,7.26c4.88-8.87,9.66-17.81,14-27a270.31,270.31,0,0,0,14-36.94c2-6.44,3.91-12.89,6.29-19.2s5.17-12.36,8.05-18.4c5.66-11.89,11.32-23.8,17.72-35.31C521.43,187.69,524.53,182.85,527.58,178ZM124.51,147.9l-5,3.14C92.29,213.75,78.37,264,78.07,300.59c-.12,13.36,2.2,26.29,4.64,40,1.88,10.52,3.83,21.39,4.6,32.58,1.44,20.67,2.68,38.52,11.18,58.35,4,9.38,14.49,28.08,23.57,44.2a50.94,50.94,0,0,1-6.83,1.41c-2.83.34-3.9.11-4,0-1.25-.76-4-4.62-5.18-6.27-4.77-6.66-9.46-13.7-14-20.51-5.41-8.12-11-16.44-16.88-24.54-5.43-17.62-6.57-34.07-7.77-51.29-.7-10.11-2.47-20-4.34-30.44-2.5-14-5.08-28.45-5-43.67.28-33.8,10.48-76.13,31-128.31a8.39,8.39,0,0,1-5.91,1.63L34.22,152.07l6.5-12.83,61,8.31L137.24,100l16,11.6Zm80,229c2.15,6.64,3.84,13.57,5.48,20.26,3.13,12.79,6.09,24.87,11.88,35a202.29,202.29,0,0,0,12.23,18.1,223.89,223.89,0,0,1,13.61,20.24c4.71,8.21,10.28,20.79,16.19,34.12l3.45,7.76a16.44,16.44,0,0,1-5.31-.59c-6.87-1.47-14.12-5.19-21.3-10-3.85-8.55-7.41-16.14-10.38-21.33A207.51,207.51,0,0,0,217.93,462a218.9,218.9,0,0,1-13.42-19.94c-7.19-12.57-10.62-26.6-13.95-40.17-1.62-6.64-3.16-12.92-5.08-18.87-10.46-32.37-7.8-80.66,6.47-117.46,5.05-13,9.1-26.72,13.38-41.21,9.68-32.73,19.69-66.58,42.2-92.71,9.33-10.81,32.62-31.23,54.2-47.49,2.5-1.89,4.94-3.69,7.34-5.43q-6.37-.12-12.71.1L264.75,48.71l16-16.29,45.32,30.82,50.8-28.38,11.19,17.71L345,81.53c-1.23-.15-2.44-.31-3.66-.45-8.23,5.07-17.56,11.49-27.57,19-22.62,17-43.74,36-51.08,44.58C243,167.56,233.59,199.31,224.51,230c-4.21,14.24-8.56,29-13.91,42.77C198.05,305.16,195.49,348.94,204.51,376.87Zm78.08,22.45c0-.09,0-.18-.07-.27-.19-.74-.38-1.48-.56-2.22s-.36-1.44-.53-2.17a168.76,168.76,0,0,1-3.34-18.5c-.08-.56-.15-1.12-.2-1.68-.13-1.09-.24-2.18-.33-3.28q-.1-1.06-.18-2.13c-.07-.84-.12-1.67-.17-2.51v-.06c0-.85-.09-1.69-.12-2.54,0-.52,0-1,0-1.55l0-1.23c0-1.24,0-2.48,0-3.73.38-36.41,16.44-66.91,29.85-99.69,12.55-30.69,20.88-62.37,41.77-89.22.69-.88,1.4-1.76,2.15-2.64.31-.38.64-.76,1-1.14.72-.83,1.48-1.66,2.27-2.49.31-.34.63-.67,1-1s1-1,1.46-1.48q1.08-1.07,2.22-2.13l.38-.35,1.13-1c1.37-1.23,2.78-2.45,4.25-3.65q.7-.6,1.44-1.17c1.56-1.25,3.18-2.48,4.84-3.7l1.18-.84q3.72-2.67,7.72-5.16l1.48-.91,2.35-1.41c.55-.32,1.09-.64,1.65-.95,1.18-.68,2.37-1.34,3.58-2-.44,1.92-.81,3.86-1.17,5.75a469.23,469.23,0,0,1-15.05,58c-11,34.06-25.23,67-39.4,99.89l-17.11,39.72c-7.45,17.29-15,34.77-26.42,49.74C287.09,392.73,284.48,395.81,282.59,399.32Zm43.91,79.87-.06.06-.84-.64-.93-.72q-1.95-1.54-3.82-3.23c-.31-.27-.62-.55-.92-.84s-.76-.7-1.13-1.07c-.86-.82-1.71-1.68-2.55-2.56-10.37-10.92-17.07-24.77-22.75-38.71-.55-1.36-1.1-2.72-1.63-4.09s-1.06-2.74-1.58-4.12c.94-2.94,1.93-5.86,3-8.73,5.74-15,14.37-28.61,21.79-42.81,19.35-37,30.47-77.63,43.68-117.24s29.1-79.28,56.15-111.1c5.83-6.85,12.44-13.91,14.49-22.5l2.11-.48,1.47-.31c1.2-.25,2.39-.48,3.58-.69s2.32-.41,3.48-.58q3.72-.57,7.43-.92l1.57-.13c2.29-.18,4.57-.3,6.84-.34l1.91,0q4.77,0,9.41.45c1.28.12,2.53.28,3.75.46.41,0,.82.12,1.22.19l.86.14c.84.15,1.67.31,2.49.49.38.07.75.16,1.12.24s.78.18,1.16.29a1.14,1.14,0,0,1,.25.06c.44.1.87.22,1.29.34s1,.27,1.44.42l1.4.44.13,0c.44.15.87.29,1.29.45.67.24,1.32.49,2,.75s1.06.43,1.58.66l1.54.7c.5.24,1,.49,1.5.75,1,.54,2.06,1.11,3,1.7.36.21.71.43,1.06.65l1.67,1.11.89.63c.94.68,1.84,1.38,2.72,2.11q.61.49,1.2,1a58,58,0,0,1,6.24,6.4c.31.37.62.74.91,1.12s.61.75.9,1.14.59.77.87,1.16c-.71,3.74-1,7.58-1.41,11.36-.81,6.72-1.89,13.41-3.16,20.05a377,377,0,0,1-9.9,39.33c-8,26.05-18.25,51.32-28.95,76.34-5.23,12.22-10.3,24.55-16.11,36.51a135.78,135.78,0,0,1-21.58,32.6c-4.48,4.92-9.2,9.62-13.7,14.53a171.9,171.9,0,0,0-12.7,15.68c-7.83,10.85-15.1,22-23.18,32.73A483.17,483.17,0,0,1,326.5,479.19Zm159.13,14c-.1.31-.19.62-.28.93l-.61-.79a17.73,17.73,0,0,1-1.8.13q.26-.9.54-1.8l-.54-.7.76,0a15.27,15.27,0,0,0,2.78-.49C486.18,491.36,485.9,492.28,485.63,493.2Zm-2.39-8.76q-3.51,1.11-7.05,2.14l-2.55.75-2.68.76-1.88.51-2.74.74-3.31.86-2.5.62q-6.91,1.71-13.9,3.11l-3,.59-3,.56-3,.53a230.69,230.69,0,0,1-48.65,3.4c-1.08-.05-2.17-.11-3.25-.18A148.69,148.69,0,0,1,370.12,497l-1.54-.28-1.66-.31q-5.82-1.15-11.44-2.84l-1.54-.47-2-.65c-.81-.27-1.61-.56-2.4-.85l-2-.75c-.51-.2-1-.4-1.54-.62s-1-.42-1.54-.64c3.81-17.27,14.48-32.65,25.83-46,14.54-17,30.74-32.63,41.7-52.4,2.87-5.18,5.59-10.44,8.94-15.33a104.83,104.83,0,0,1,10.57-12.84c8-8.43,16.91-16.08,25.79-23.57q7.83-6.61,15.86-13a459.46,459.46,0,0,0,61.24-45.92q4.92-3.6,9.89-7.13a47.76,47.76,0,0,1,7.42-4.47c2.75-1.27,5.63-2.19,8.4-3.42a40.74,40.74,0,0,0,9.55-5.95q1.69,2.93,3.34,5.86c.49.88,1,1.75,1.46,2.63l1.89,3.53c.48.91,1,1.83,1.42,2.74,1.66,3.24,3.25,6.52,4.74,9.85.27.6.54,1.21.8,1.81l.87,2c.23.56.47,1.13.69,1.69s.51,1.24.75,1.86l.72,1.87c.18.48.37,1,.55,1.46,1.2,3.3,2.3,6.65,3.26,10.07.19.63.36,1.27.53,1.91s.35,1.31.51,2,.32,1.29.47,1.93L545,380.68l-24.91,37.2c-7.39,11-14.76,22.12-21.37,33.66A204.15,204.15,0,0,0,483.24,484.44Zm93.52-50c-11.37,16.68-27.08,23.69-45.07,31.62l-3,1.32-3,1.31q-9.15,3.9-18.5,7.47a125.81,125.81,0,0,0,4.72-14.21,230.64,230.64,0,0,1,76.31-114.54,96.53,96.53,0,0,0,8.29-7.17c.06.65.12,1.3.16,2,.09,1.07.16,2.13.22,3.2.11,1.64.18,3.28.24,4.93,0,.84.06,1.68.08,2.51,0,1,0,2,.05,3C597.43,382.94,592.29,411.65,576.76,434.41Z"/><path d="M486.48,490.44c-.3.92-.58,1.84-.85,2.76l-.89.14a17.73,17.73,0,0,1-1.8.13q.26-.9.54-1.8c.07-.25.14-.5.22-.74A15.27,15.27,0,0,0,486.48,490.44Z"/><path d="M486.48,490.44c-.3.92-.58,1.84-.85,2.76-.1.31-.19.62-.28.93l-.61-.79a17.73,17.73,0,0,1-1.8.13q.26-.9.54-1.8l-.54-.7.76,0A15.27,15.27,0,0,0,486.48,490.44Z"/></g></g></svg>