<svg xmlns="http://www.w3.org/2000/svg" viewBox="0 0 553.21 545.42"><defs><style>.cls-1{fill:#fff;}</style></defs><g id="Layer_2" data-name="Layer 2"><g id="Layer_2-2" data-name="Layer 2"><path d="M503,197.55,468,218.72v194a36.75,36.75,0,0,1-17.81,31.49L290.6,540.17a36.79,36.79,0,0,1-37.88,0L93.18,444.23a36.75,36.75,0,0,1-17.81-31.49V201.06L271.66,83,468,201.06Z"/><polygon points="271.66 83.04 75.37 201.06 0 104.05 188.62 0 271.66 83.04"/><polygon points="271.66 291.04 202.58 291.04 28.08 197.55 75.37 201.06 271.66 291.04"/><polygon points="553.21 115.8 467.95 201.06 271.66 83.04 353.18 1.52 553.21 115.8"/><polygon class="cls-1" points="271.66 291.05 111.39 200.42 271.66 104.05 431.93 200.42 271.66 291.05"/></g></g></svg>