<svg xmlns="http://www.w3.org/2000/svg" viewBox="0 0 409.79 304.1"><defs><style>.cls-1{stroke:#000;stroke-miterlimit:10;stroke-width:25px;}.cls-2{fill:#fff;}</style></defs><g id="Layer_2" data-name="Layer 2"><g id="Layer_12" data-name="Layer 12"><path d="M49,90.68c2.92,2.74-2,2.7.94.92,1.44-.88,2.76-2.59,4.17-3.62,5.08-3.74,10.78-6.65,16.36-9.56Q87.51,69.5,104.8,61C128,49.6,151.43,38.48,175.25,28.44,221,9.12,265,40.4,301.48,65.07c10.6,7.18,21.35,14.18,32.74,20.07,8.89,4.6,20.13,8.64,25.88,17.34l1.76-13.63c-5,5.34-15.68,5.36-22.42,6.53-10.3,1.78-20.62,3.45-31,5-20,2.89-40.12,5-60.29,6-41.58,2-82.61-3-123.86-7.52L88.85,94.88,72.1,93.05c-4.3-.47-9.5-.29-13.33-2.56-12.49-7.4-23.82,12-11.36,19.42,9.28,5.5,21.15,5.25,31.59,6.4L112.5,120c21.83,2.38,43.65,5,65.52,7,44.45,4.12,88.42,1.78,132.56-4.39,12-1.68,23.9-3.6,35.81-5.67,11.19-2,23.21-3.36,31.38-12.15,3.25-3.5,4.56-9.4,1.76-13.63-7-10.66-17.41-17-28.59-22.7a319.87,319.87,0,0,1-32.55-19.05C296.75,35,275.87,19.5,251.59,9.72A139,139,0,0,0,210.23.27,90,90,0,0,0,167.6,7.44c-26.86,11.27-53.26,23.76-79.34,36.7C74,51.23,59,57.91,45.57,66.62c-6.5,4.22-13.15,9.17-16.5,16.37-3.68,7.91-2.51,17.5,4,23.6,10.55,9.91,26.49-6,15.91-15.91Z"/><path class="cls-1" d="M294.93,291.6H114.86A43.07,43.07,0,0,1,72.8,257.8L41.89,117.6h326L337,257.8A43.07,43.07,0,0,1,294.93,291.6Z"/><path d="M401.83,144.79H8C-.95,144.79,0,132.62,0,117.6S7,90.41,15.53,90.41H394.26c8.56,0,15.5,12.17,15.5,27.19S410.74,144.79,401.83,144.79Z"/><path class="cls-2" d="M125.8,247.57c-7,0-12.6-5.09-12.6-11.36V167.15c0-6.27,5.64-11.36,12.6-11.36s12.61,5.09,12.61,11.36v69.06C138.41,242.48,132.77,247.57,125.8,247.57Z"/><path class="cls-2" d="M203.55,247.57c-7,0-12.61-5.09-12.61-11.36V167.15c0-6.27,5.65-11.36,12.61-11.36s12.61,5.09,12.61,11.36v69.06C216.16,242.48,210.51,247.57,203.55,247.57Z"/><path class="cls-2" d="M281.3,247.57c-7,0-12.61-5.09-12.61-11.36V167.15c0-6.27,5.64-11.36,12.61-11.36s12.6,5.09,12.6,11.36v69.06C293.9,242.48,288.26,247.57,281.3,247.57Z"/></g></g></svg>