<svg xmlns="http://www.w3.org/2000/svg" viewBox="0 0 727.15 433.8"><defs><style>.cls-1{fill:#fff;}</style></defs><g id="Layer_2" data-name="Layer 2"><g id="Layer_3" data-name="Layer 3"><path d="M417.78,90.31A107.32,107.32,0,0,1,415.08,44c2.94-19.6,12.41-45.57,36.55-44,48.54,3.24,96.68,26.51,139.9,47.43a809,809,0,0,1,79.65,44.26c15.46,9.77,51.51,23.32,55.52,43.69,6.24,31.65-54,30.77-71.69,33.22a759.52,759.52,0,0,0-86.34,17.09c-24.74,6.4-50.08,17.71-76.06,11.41-7.4-1.8-12.33-8.58-16.6-14.88-11.85-17.48-24.08-34.35-37-51.18C429.11,118.11,421.9,104.63,417.78,90.31Z"/><path class="cls-1" d="M509,180.61a3.64,3.64,0,0,1-.56-.05c-4.52-.75-7.66-7.09-9.73-10.77-5.08-9.06-8.45-18.94-13.86-27.85-4.95-8.15-11.24-15.55-19.45-20.26l-.23-.13a37.89,37.89,0,0,0-21.58-4.68c-5.31.39-10.25-6.67-11-15.77-.41-4.84-.08-11.06,3.58-14.59a11.12,11.12,0,0,1,6.13-2.76c6.06-.88,13,.15,18.93,1.3a64.59,64.59,0,0,1,21.06,8,72.4,72.4,0,0,1,18.37,16.17,86.49,86.49,0,0,1,15.66,27.72,55.65,55.65,0,0,1,2.39,22c-.51,6.2-1.49,15.36-6,19.91A5.45,5.45,0,0,1,509,180.61Z"/><path d="M137.75,198.13C122.17,157.3,156.81,103.22,195,86.85c33.38-14.3,70.44-16.31,106.25-18.51,47.28-2.91,106.87-5.16,147.12,24,30.07,21.74,56.48,58.81,52,97.65A71.86,71.86,0,0,1,487,223.75a193.52,193.52,0,0,1-13.15,15.85,392,392,0,0,1-42,40.45c-15.09,12.4-27.11,26.94-44.7,36.33-14.9,7.95-33,12.3-49.76,8.18-16.16-4-30.84-18.4-43.42-28.76-16.47-13.55-32.48-28-51.68-37.7-14.15-7.13-29.68-11-44.82-15.6S167.12,232.12,155,221.92A57.94,57.94,0,0,1,137.75,198.13Z"/><path class="cls-1" d="M328.26,305c-11.7-1.06-18.23-17.69-26.76-23.22-39.44-25.58-79.78-47.19-123.26-75.43-11.4-7.4-24.51-10.69-24.38-23.61s11.12-23.19,24.61-23.19h.22c47,.56,92.1,15.07,126,46.69a187.91,187.91,0,0,1,23.78,27c7.79,10.72,16.18,22.58,19.73,35.28C352,282.18,348.59,306.83,328.26,305Z"/><path d="M288.59,255.36c-46-45.51-112.63-73.29-177.65-72.29-10,.15-20.48,3.36-29.8,7-29.06,11.45-54.17,34.76-68,62C-.5,279.08-3.26,310.38,3.65,339.62a151.93,151.93,0,0,0,14.79,38.14c14.09,25.68,31.25,41.16,50.25,49.16,1.73-11.86,4.55-27.21,8-41.36,7.11-29.09,14.71-45.37,21.77-54.66-3.92-3.47-5.94-7.53-5.17-11.39,1.58-7.92,14.36-12,28.54-9.19s24.36,11.58,22.77,19.5c-1.33,6.62-10.48,10.59-21.75,10-3.06,2.57-13.19,13.44-22.26,49.81a432.37,432.37,0,0,0-8.36,43.42c66.25,8,146.75-52.68,198-87.9,7.13-4.9,14.4-9.93,19.65-16.81C328.82,303.52,306.48,273,288.59,255.36ZM113.14,243.44c-16,0-29.34-5.57-29.34-15s13.38-26.56,29.34-26.56,28.45,17.09,28.45,26.56S129.1,243.44,113.14,243.44Z"/></g></g></svg>