<svg xmlns="http://www.w3.org/2000/svg" viewBox="0 0 2068.2 478.93"><defs><style>.cls-1{font-size:117.77px;font-family:Montserrat-BlackItalic, Montserrat;font-weight:800;font-style:italic;}.cls-2{letter-spacing:-0.02em;}.cls-3{letter-spacing:0em;}</style></defs><g id="Layer_2" data-name="Layer 2"><g id="creative_separate" data-name="creative separate"><path d="M495.33,67.6c-1.25-20.48-12.23-38.73-30.12-50.08A108.73,108.73,0,0,0,406.14,0c-1.94,0-3.91.05-5.86.16-15.9.86-34.44,2-53.08,5.16C286.6,15.48,224.48,32.75,151.7,59.66c-27,10-50.09,21.57-70.57,35.44C46.8,118.34,22.44,149.5,8.71,187.71-1.91,217.28-2.84,247.78,6,275.91s27.14,52.62,52.83,70.71A194.67,194.67,0,0,0,113,373.73c31.27,9.71,62.75,15.23,105.27,18.44l1.69.13,1.69-.06c3-.1,6.67-.16,11-.24,12.45-.23,29.5-.54,46.64-1.92,17.88-1.42,35.22-4.38,52-7.24l5.48-.94c22.56-3.82,39.84-16.51,48.31-34.87-4.22-8.76-3-19.86-2.77-29.22.23-11.64-.1-24.24,5.72-34.72a6.57,6.57,0,0,1,.67-1,132.13,132.13,0,0,0-17.87-40.82,52.18,52.18,0,0,0-44.43-24.26,60.52,60.52,0,0,0-13.9,1.66c-7.32,1.73-14.39,3.77-20.44,5.54a328.29,328.29,0,0,1-92.41,13.5A327.17,327.17,0,0,1,157.77,235c-10.75-1.4-19-3.56-25.71-6.84A50.28,50.28,0,0,1,146.37,214c10.82-7.13,22.36-14.57,33.9-20.3,53-26.29,104.29-44.59,156.73-55.92a296,296,0,0,1,58.43-6.51c2.53,0,4.88-.14,7.15-.24,2.42-.1,4.7-.19,6.72-.19,3.22,0,5.23.24,6.51.78A49.39,49.39,0,0,0,435,135.5c12.6,0,25.08-4.78,36.09-13.82C487.78,108,496.6,88.3,495.33,67.6Zm-44.1,29.84c-6.91,5.67-15.17,8.66-23.26,5.26-11-4.64-21.91-3-33.05-2.8a329.66,329.66,0,0,0-64.54,7.21c-57.24,12.37-111.71,32.52-164,58.48-12.91,6.41-25.16,14.27-37.22,22.21a81.32,81.32,0,0,0-28,31.2C93,235,94.93,242,109.84,251.61c13.37,8.64,28.33,12.51,43.9,14.52a355,355,0,0,0,147.07-11.78c6.24-1.83,12.51-3.62,18.83-5.11,10.22-2.42,19.18.48,24.81,9.15,13.71,21.12,19.54,44.37,14.15,69.29-3,13.87-13.68,21-27.14,23.3-18.17,3.08-36.39,6.37-54.73,7.84-21.94,1.75-44,1.68-56.13,2.07-40-3-69.53-8.17-98.32-17.12A162.49,162.49,0,0,1,76.91,321C36.1,292.24,21.36,245.3,38.23,198.31c11.64-32.41,32.06-58,60.48-77.24,19.87-13.45,41.41-23.69,63.87-32,61.8-22.85,124.71-41.91,189.8-52.83,16.35-2.74,33-3.88,49.59-4.77A77.74,77.74,0,0,1,448.4,44C468.21,56.57,469.37,82.54,451.23,97.44Z"/><path d="M1353.32,155.77c-15.49-24.1-42.66-38.7-72.68-39h-1.07a118.66,118.66,0,0,0-12.57.73c-.66-2-1.35-4-2.11-6.07-9-24.28-30.82-40-55.57-40A62,62,0,0,0,1178,80.15a77,77,0,0,0-25.9,25.42c-6.34,10.24-9.69,21.35-12.12,30.87a126.91,126.91,0,0,0-2.77,15.53c-11.1,5.65-22.94,11.51-35.91,17.77-27.58,13.31-43.3,37.7-44.26,68.68,0,.61,0,1.21,0,1.82,7,4.94,11.22,13.11,15.76,20.37,6.91,11.05,14.66,21.42,21.16,32.76a7.71,7.71,0,0,1,.67,1.48l.91.38c13.81,5.74,29,12.07,46.28,14.93,2.09,15.95,4.11,31.15,6.51,46.68,2.17,14.08,4.87,30.43,9.48,46.34,7.5,25.88,26.75,44.88,52.83,52.14a113.8,113.8,0,0,0,30.42,4.27c25.72,0,49.63-9.15,71.08-27.17s28.13-44.48,17.88-70.76a158.68,158.68,0,0,0-13.53-26.38,191.15,191.15,0,0,1-20.18-43.13c29.09-8.57,50.56-27,62.31-53.51C1370.87,211,1368.89,180,1353.32,155.77Zm-23.38,70.17c-9.2,20.75-25.89,32.38-47.53,37.45-7,1.63-14.08,2.74-21.65,4.19a106.35,106.35,0,0,0,4.47,30.27,220.79,220.79,0,0,0,24.66,54.08,127.6,127.6,0,0,1,10.9,21.13c5.3,13.59,2.22,26.05-8.84,35.35-21.29,17.89-45.8,24.23-72.91,16.69-15.7-4.37-26.62-15.13-31.11-30.65-4-13.81-6.42-28.14-8.62-42.39-3.57-23.18-6.4-46.48-9.71-70.91-3.73-.31-6.91-.77-10.11-.8-20.45-.24-38.64-8.64-57-16.17-10.58-4.36-14.46-13.93-14.13-24.79.59-18.93,9.13-33,26.54-41.4,15.9-7.68,31.72-15.52,47.39-23.66,2.05-1.07,3.78-4.18,4.26-6.62,1.56-7.78,1.84-15.85,3.79-23.51s4.3-15.51,8.39-22.1a45.84,45.84,0,0,1,15.15-14.91c16.47-9.69,34.91-2.83,41.56,15.1,3.5,9.42,5.68,19.33,8.77,30.14,4.1-.69,8.2-1.57,12.36-2.05,7.87-.93,15.79-2.38,23.67-2.29C1321.86,148.57,1346.83,187.79,1329.94,225.94Z"/><path d="M1901,201.25c-25.37.18-48.4,3.78-66.71,22.15C1858.06,226,1889.79,215.26,1901,201.25Z"/><path d="M2042.12,257.63A58.92,58.92,0,0,0,2005.93,245a62.19,62.19,0,0,0-16.24,2.21c1.38-2.62,2.51-5.05,3.45-7.14,15.33-34.38,10.26-69.1-14.27-97.77-15.88-18.57-37.41-30.45-64-35.31a165.31,165.31,0,0,0-29.74-2.68c-21.87,0-44.54,4.19-69.3,12.79-34.35,11.94-59.84,36-73.72,69.57-1.7,4.12-3.24,8.22-4.66,12.32a6.69,6.69,0,0,1,3.12,2.86c4.55,8,4.14,18.32,5.07,27.28,1.14,11,1.73,22.14,2,33.24.2,9.58.13,19.15-.5,28.71a53.82,53.82,0,0,1-1.39,13.85c-.29,2.39-.58,4.79-.8,7.19-.37,4.14-.34,8.18-2.63,11.83a7.77,7.77,0,0,1-1.85,2c8.18,20.11,21.72,42.62,46.28,59.22,17,11.53,36.71,19.53,58.46,23.77a208.25,208.25,0,0,0,39.75,3.8c25.77,0,52.47-4.55,81.62-13.9,21-6.74,44.82-14.38,66.83-28,18.76-11.6,30-27.07,33.5-46C2071.8,298.08,2062.77,273.57,2042.12,257.63ZM2036,319.2c-2.1,11.42-9.44,19-19.15,25-18.66,11.54-39.33,18.2-59.91,24.8-34.46,11-69.66,16.23-105.78,9.18-16.85-3.28-32.57-9.26-46.9-19-22.63-15.3-33.66-37.82-41-63.12-9.68-33.57-5.25-65.95,7.77-97.45,10.46-25.3,28.86-42.83,55-51.92,27-9.4,54.58-14.1,83.1-8.89,17.88,3.27,33.77,10.78,45.8,24.85,16.65,19.46,19.9,41.17,9.45,64.61-2.33,5.23-5.15,10.56-8.93,14.78-22.69,25.28-50.32,40.7-85.1,41.06-3.25,0-6.51-.08-9.76-.07-12.61.05-25.31,1.13-39.46-5.27,4.4,14.71,12.72,22.13,23.68,26.93a94.58,94.58,0,0,0,39,8c22.53-.24,44.84-3.1,65.78-11.8,12.3-5.11,23.87-12,35.76-18.05,1-.49,1.89-1.05,2.85-1.56,11.76-6.24,23.54-7.42,34.61,1.13C2035,291.78,2038.72,304.59,2036,319.2Z"/><path d="M981.08,327.37c-11.23.18-18.49,6.44-23.36,16.2,18.68,9.18,37.42,11.06,58,4C1006.52,335,996.08,327.12,981.08,327.37Z"/><path d="M1188.15,402a114.86,114.86,0,0,0-10.56-29.22,125.4,125.4,0,0,0-15.3-22.65c-15-18.37-29.13-39.31-44.52-65.89-9.56-16.48-20.46-33.25-32.42-49.83-13.9-19.28-31-31.42-50.94-36.09a177.68,177.68,0,0,0-40.29-4.89c-29.6,0-56.41,8.51-79.67,25.31-52.23,37.71-73.34,89.74-61,150.48a133.56,133.56,0,0,0,17.13,44.47c20.34,33,53.52,51.86,91,51.86a117.52,117.52,0,0,0,26.67-3.13A90.89,90.89,0,0,1,1000,461l3.28-.28c18.29-1.63,36.37-3.71,54.92-9.67,1.4,1.35,2.86,2.69,4.4,4,18.43,15.84,38.76,23.87,60.43,23.87,1.86,0,3.74-.06,5.61-.18,20-1.28,37.12-10,48.33-24.61C1188,439.72,1192,421.21,1188.15,402Zm-61.56,45.44c-16.89,1.08-31.16-5.5-43.59-16.18-6-5.13-11-11.41-16.6-17.39-22,11.11-43.91,13.64-65.94,15.6-6.47.57-13,.94-19.33,2.41C947,439.84,915.6,427,897.24,397.23A103.26,103.26,0,0,1,884.16,363c-10.23-50.49,8.29-89.68,48.65-118.82,28.35-20.47,61-23.16,94.44-15.31,14,3.28,24.56,12.66,32.66,23.9,11,15.21,21.31,31,30.72,47.21,14.17,24.46,29.48,48,47.36,70a96.32,96.32,0,0,1,11.6,17,84.89,84.89,0,0,1,7.8,21.22C1161.68,429.62,1148.53,446.05,1126.59,447.45Z"/><path d="M870.22,362.14c-6.52-28.49-27-46.75-53.94-48.57,10.53-19.16,14.73-41.71,12.09-66.65-2.43-23-11.91-43.12-27.42-58.3-15.79-15.46-36.39-24.37-59.56-25.75-3.23-.2-6.51-.29-9.74-.29A150.27,150.27,0,0,0,699.42,166c-38.75,8.53-69.09,26.78-89.8,53.66,3.17,9.22-1,18.25-4.54,27-3.4,8.31-7.11,17.15-13.26,23.91a7.46,7.46,0,0,1-7.63,1.71,194.16,194.16,0,0,0-6.44,32.31c-4.47,43,10.2,79.52,42.4,105.69,19.54,15.88,41.18,26.47,64.31,31.48a337.53,337.53,0,0,0,71.17,7.64,345.11,345.11,0,0,0,63-5.88,64.57,64.57,0,0,0,42.65-28.06C871.38,400,874.56,381.09,870.22,362.14Zm-57.35,50.51a306,306,0,0,1-121.78-1.59c-19-4.12-36.09-12.91-51.16-25.16-24.82-20.17-34.23-46.87-31-78.11a174.06,174.06,0,0,1,6.47-30.71c13.37-45.7,45.75-70.58,90.74-80.48a122.83,122.83,0,0,1,33.36-2.42c31.77,1.9,54.3,24.36,57.66,56,3.78,35.7-10.25,62.84-41.85,80-9.74,5.3-20,9.68-32.25,15.56,6.34.91,10.44,1.75,14.58,2.06a278.35,278.35,0,0,0,67.06-2.5c18.5-3.07,30.74,5.46,34.92,23.73C844.42,390,833.08,408.88,812.87,412.65Z"/><path d="M747,262c-25-11.15-66.58,5.79-73.18,29.48,22.61-5,44.69-9.83,64.46-21.64C741.35,268,743.76,265,747,262Z"/><path d="M604.15,169.73a125.69,125.69,0,0,0-19.61-12,127.87,127.87,0,0,0-58-14.16l-2.65,0-2.49,0c-21,0-38.78,3.83-54.4,11.71-59.6,30-96.53,76.15-109.77,137-8.74,40.19,0,78.22,25.37,110,14.75,18.48,33.41,30.29,55.46,35.11a85.16,85.16,0,0,0,18.07,2,71.12,71.12,0,0,0,27.26-5.32c22.77-9.41,34.56-30.27,30.78-54.45a219.43,219.43,0,0,0-4.82-23.46,11.11,11.11,0,0,1,.39-6.87,26,26,0,0,1,12.91-15.48c10.06-5.5,20.81-10.32,32.18-15.42,4.53-2,9.22-4.13,13.88-6.29,2.36-1.09,5-2.19,7.88-3.35,6.77-2.77,14.45-5.91,22.12-10.72,23.89-15,38.21-37.71,39.31-62.38S626.79,186.88,604.15,169.73ZM582.07,271.51c-8.17,5.13-17.68,8.1-26.52,12.19-16,7.42-32.45,14.19-47.93,22.65a57.2,57.2,0,0,0-27.74,33.46,42.51,42.51,0,0,0-.8,24.55,191.18,191.18,0,0,1,4.12,20.17c1.57,10-2.32,16.7-11.77,20.61-8.65,3.57-17.66,3.61-26.66,1.65-15.46-3.38-27.85-11.77-37.63-24-19.81-24.82-25.9-53.17-19.25-83.76,11.73-53.91,44.76-91.26,93.25-115.71,13.13-6.62,27.53-8.58,42.92-8.32a102.58,102.58,0,0,1,61.15,19.76C615,217.32,613.77,251.64,582.07,271.51Z"/><path d="M1770.78,270.17a356.15,356.15,0,0,0-6.84-58.51,115.61,115.61,0,0,0-14.78-37.21,83.56,83.56,0,0,0-26.8-26.9,49.72,49.72,0,0,0-26.2-7.91c-23.44,0-41.78,18.48-43.6,43.94a95.31,95.31,0,0,0,1.29,22.44c1.08,6.56,2.54,12.58,3.94,18.39.31,1.28.62,2.55.92,3.83,6.77,28.57,8.27,49.81,4.85,68.89a66.1,66.1,0,0,1-5.29,17.26,3.52,3.52,0,0,1-3.1,2.3c-.37,0-1.06,0-2.11-1.4-4-5.35-7.75-12.12-11.68-19.29l-2.08-3.8c-3.3-6-6.46-12-9.8-18.36-5.16-9.83-10.5-20-16.43-30.06-7.5-12.7-16.21-25.82-27.43-41.29-15.74-21.71-34.14-34.42-56.26-38.85a67.93,67.93,0,0,0-13.43-1.36c-19,0-35.8,8.37-46.12,23-10.67,15.09-12.89,34.75-6.1,53.94a127.33,127.33,0,0,0,8,17.41l.74,1.39q6.36,12.13,12.67,24.31c11,21.17,22.39,43.07,34.27,64.47,21.69,39.1,56.17,65.32,99.71,75.81a135.08,135.08,0,0,0,31.68,3.88c53.1,0,96-33.9,111.9-88.46C1769.16,315.84,1771.38,293,1770.78,270.17Zm-38.19,59.05c-14.49,49.67-55.83,75-106.12,62.87-34.77-8.38-62.08-28.9-79.63-60.53-16.12-29.06-31.15-58.72-46.6-88.14a114.32,114.32,0,0,1-6.94-14.69c-7.75-21.9,7.09-38.91,29.92-34.34,16.25,3.26,27.74,13.7,37,26.51,9.12,12.58,17.92,25.46,25.81,38.82,9.17,15.54,17,31.84,25.78,47.65,5.05,9.15,9.93,18.54,16.2,26.83,16,21.23,46.93,17.1,58.33-5.87a96.61,96.61,0,0,0,8.06-25.67c4.94-27.55,1.18-54.72-5.2-81.65-1.58-6.68-3.32-13.34-4.43-20.1a65.38,65.38,0,0,1-1-15.09c1-13.34,10.5-18.8,21.9-11.67a52.33,52.33,0,0,1,16.59,16.55,84.27,84.27,0,0,1,10.82,26.94C1740.45,255.17,1743.44,292,1732.59,329.22Z"/><path d="M1526.92,368.11c4.28-36.16-11.44-75.53-27.74-105.88-3-5.66-5.88-11.6-8.9-17.89-3.09-6.45-6.29-13.12-9.87-19.83l-.17-.3c-4.82-9-10.29-19.28-18.75-28.63a77.54,77.54,0,0,0-26.27-19.11c-1.51.1-3,.17-4.56.18h-.3a72.57,72.57,0,0,1-29.34-6.21,74.32,74.32,0,0,0-34.65,11.32c-7.36,4.61-29.74,18.66-34.49,43.93-3.5,18.62,3.83,34.43,10.61,46.12,9.62,16.61,18.33,29.58,27.39,40.82,12.92,16,20.55,34.11,23.34,55.28a240,240,0,0,0,6,31.7c7.2,26.79,27.28,43.43,52.39,43.43a65,65,0,0,0,28.22-6.86c17.87-8.61,32.29-24.7,40.27-42.72A87.86,87.86,0,0,0,1526.92,368.11Zm-32.24.61c-2.49,16.45-10.79,30.69-28.46,39.2s-31.65,2.37-36.71-16.45a215.68,215.68,0,0,1-5.2-27.66c-3.48-26.43-13.15-49.94-30-70.86-9.25-11.47-17.27-24.09-24.67-36.86-10.51-18.13-12.43-31.55,13.41-47.76,18.1-11.36,40.43-8,55.2,8.3,5.94,6.56,10.28,14.75,14.5,22.65,6.62,12.41,12.16,25.4,18.81,37.78C1484.09,300.42,1499.28,338.35,1494.68,368.72Z"/><path d="M1427.17,28.92h-.54a70.59,70.59,0,0,0-50.4,21.46,71.82,71.82,0,0,0-20.42,51.84c.75,41,34.19,74.43,74.55,74.43h.3a70.21,70.21,0,0,0,50-21,72.57,72.57,0,0,0,20.9-52C1501.24,62.45,1467.87,28.92,1427.17,28.92Zm3.36,116.36c-23.42.1-42.92-19.52-43.36-43.63-.41-22.74,17.3-41.2,39.7-41.37,23.44-.17,43.14,19.66,43.32,43.62C1470.36,126.86,1452.8,145.19,1430.53,145.28Z"/></g><g id="Layer_13" data-name="Layer 13"><text class="cls-1" transform="translate(559.76 102.78)">BR<tspan class="cls-2" x="178.78" y="0">W</tspan><tspan class="cls-3" x="319.04" y="0">N</tspan></text></g></g></svg>