<svg xmlns="http://www.w3.org/2000/svg" viewBox="0 0 2068.2 605.91"><defs><style>.cls-1{fill:#fff;}</style></defs><g id="Layer_2" data-name="Layer 2"><g id="creative_separate" data-name="creative separate"><path id="c" d="M218.24,392.17c-42.52-3.21-74-8.73-105.27-18.44a194.67,194.67,0,0,1-54.12-27.11C33.16,328.53,14.9,304.08,6,275.91s-7.93-58.63,2.69-88.2C22.44,149.5,46.8,118.34,81.13,95.1c20.48-13.87,43.56-25.46,70.57-35.44C224.48,32.75,286.6,15.48,347.2,5.32,365.84,2.19,384.38,1,400.28.16c2-.11,3.92-.16,5.86-.16a108.73,108.73,0,0,1,59.07,17.52c17.89,11.35,28.87,29.6,30.12,50.08,1.27,20.7-7.55,40.41-24.2,54.08-11,9-23.49,13.82-36.09,13.82a49.39,49.39,0,0,1-19.23-3.89c-1.28-.54-3.29-.78-6.51-.78-2,0-4.3.09-6.72.19-2.27.1-4.62.2-7.15.24A296,296,0,0,0,337,137.77c-52.44,11.33-103.71,29.63-156.73,55.92-11.54,5.73-23.08,13.17-33.9,20.3a50.28,50.28,0,0,0-14.31,14.2c6.76,3.28,15,5.44,25.71,6.84a327.17,327.17,0,0,0,41.81,2.72A328.29,328.29,0,0,0,292,224.25c6.05-1.77,13.12-3.81,20.44-5.54a60.52,60.52,0,0,1,13.9-1.66,52.18,52.18,0,0,1,44.43,24.26c18.95,29.19,25.34,61.34,18.49,93-5.44,25.15-25.08,42.94-52.55,47.59l-5.48.94c-16.77,2.86-34.11,5.82-52,7.24-17.14,1.38-34.19,1.69-46.64,1.92-4.3.08-8,.14-11,.24l-1.69.06Z"/><path id="C-2" data-name="C" class="cls-1" d="M220.6,360.89c-40-3-69.53-8.17-98.32-17.12A162.49,162.49,0,0,1,76.91,321C36.1,292.24,21.36,245.3,38.23,198.31c11.64-32.41,32.06-58,60.48-77.24,19.87-13.45,41.41-23.69,63.87-32,61.8-22.85,124.71-41.91,189.8-52.83,16.35-2.74,33-3.88,49.59-4.77A77.74,77.74,0,0,1,448.4,44c19.81,12.57,21,38.54,2.83,53.44-6.91,5.67-15.17,8.66-23.26,5.26-11-4.64-21.91-3-33.05-2.8a329.66,329.66,0,0,0-64.54,7.21c-57.24,12.37-111.71,32.52-164,58.48-12.91,6.41-25.16,14.27-37.22,22.21a81.32,81.32,0,0,0-28,31.2C93,235,94.93,242,109.84,251.61c13.37,8.64,28.33,12.51,43.9,14.52a355,355,0,0,0,147.07-11.78c6.24-1.83,12.51-3.62,18.83-5.11,10.22-2.42,19.18.48,24.81,9.15,13.71,21.12,19.54,44.37,14.15,69.29-3,13.87-13.68,21-27.14,23.3-18.17,3.08-36.39,6.37-54.73,7.84C254.79,360.57,232.7,360.5,220.6,360.89Z"/><path id="t" d="M1241.05,459.59a113.8,113.8,0,0,1-30.42-4.27c-26.08-7.26-45.33-26.26-52.83-52.14-4.61-15.91-7.31-32.26-9.48-46.34-2.4-15.53-4.42-30.73-6.51-46.68-17.26-2.86-32.47-9.19-46.28-14.93l-4.93-2.05c-21.79-9-34.33-29.43-33.55-54.76,1-31,16.68-55.37,44.26-68.68,13-6.26,24.81-12.12,35.91-17.77a126.91,126.91,0,0,1,2.77-15.53c2.43-9.52,5.78-20.63,12.12-30.87A77,77,0,0,1,1178,80.15a62,62,0,0,1,31.31-8.73c24.75,0,46.56,15.68,55.57,40,.76,2,1.45,4.06,2.11,6.07a118.66,118.66,0,0,1,12.57-.73h1.07c30,.34,57.19,14.94,72.68,39s17.55,55.21,5.29,82.87c-11.75,26.55-33.22,44.94-62.31,53.51a191.15,191.15,0,0,0,20.18,43.13A158.68,158.68,0,0,1,1330,361.66c10.25,26.28,3.57,52.73-17.88,70.76S1266.77,459.59,1241.05,459.59Z"/><path id="t-2" data-name="t" class="cls-1" d="M1169.6,281.15c-3.73-.31-6.91-.77-10.11-.8-20.45-.24-38.64-8.64-57-16.17-10.58-4.36-14.46-13.93-14.13-24.79.59-18.93,9.13-33,26.54-41.4,15.9-7.68,31.72-15.52,47.39-23.66,2.05-1.07,3.78-4.18,4.26-6.62,1.56-7.78,1.84-15.85,3.79-23.51s4.3-15.51,8.39-22.1a45.84,45.84,0,0,1,15.15-14.91c16.47-9.69,34.91-2.83,41.56,15.1,3.5,9.42,5.68,19.33,8.77,30.14,4.1-.69,8.2-1.57,12.36-2.05,7.87-.93,15.79-2.38,23.67-2.29,41.58.48,66.55,39.7,49.66,77.85-9.2,20.75-25.89,32.38-47.53,37.45-7,1.63-14.08,2.74-21.65,4.19a106.35,106.35,0,0,0,4.47,30.27,220.79,220.79,0,0,0,24.66,54.08,127.6,127.6,0,0,1,10.9,21.13c5.3,13.59,2.22,26.05-8.84,35.35-21.29,17.89-45.8,24.23-72.91,16.69-15.7-4.37-26.62-15.13-31.11-30.65-4-13.81-6.42-28.14-8.62-42.39C1175.74,328.88,1172.91,305.58,1169.6,281.15Z"/><path id="e_2" data-name="e 2" d="M1884.94,412.75a208.25,208.25,0,0,1-39.75-3.8c-21.75-4.24-41.42-12.24-58.46-23.77-33.77-22.83-46.72-56.83-53.52-80.41-10.89-37.74-7.89-77.48,8.91-118.12,13.88-33.57,39.37-57.63,73.72-69.57,24.76-8.6,47.43-12.79,69.3-12.79a165.31,165.31,0,0,1,29.74,2.68c26.58,4.86,48.11,16.74,64,35.31,24.53,28.67,29.6,63.39,14.27,97.77-.94,2.09-2.07,4.52-3.45,7.14a62.19,62.19,0,0,1,16.24-2.21,58.92,58.92,0,0,1,36.19,12.65c20.65,15.94,29.68,40.45,24.77,67.23-3.48,18.92-14.74,34.39-33.5,46-22,13.62-45.82,21.26-66.83,28C1937.41,408.2,1910.71,412.74,1884.94,412.75Z"/><path id="e_2-2" data-name="e 2" class="cls-1" d="M1821.24,277.78c4.4,14.71,12.72,22.13,23.68,26.93a94.58,94.58,0,0,0,39,8c22.53-.24,44.84-3.1,65.78-11.8,12.3-5.11,23.87-12,35.76-18.05,1-.49,1.89-1.05,2.85-1.56,11.76-6.24,23.54-7.42,34.61,1.13,12.08,9.32,15.77,22.13,13.09,36.74-2.1,11.42-9.44,19-19.15,25-18.66,11.54-39.33,18.2-59.91,24.8-34.46,11-69.66,16.23-105.78,9.18-16.85-3.28-32.57-9.26-46.9-19-22.63-15.3-33.66-37.82-41-63.12-9.68-33.57-5.25-65.95,7.77-97.45,10.46-25.3,28.86-42.83,55-51.92,27-9.4,54.58-14.1,83.1-8.89,17.88,3.27,33.77,10.78,45.8,24.85,16.65,19.46,19.9,41.17,9.45,64.61-2.33,5.23-5.15,10.56-8.93,14.78-22.69,25.28-50.32,40.7-85.1,41.06-3.25,0-6.51-.08-9.76-.07C1848.09,283.1,1835.39,284.18,1821.24,277.78Zm13-54.38c23.77,2.62,55.5-8.14,66.71-22.15C1875.63,201.43,1852.6,205,1834.29,223.4Z"/><path id="a" d="M1123,478.93c-21.67,0-42-8-60.43-23.87-1.54-1.32-3-2.66-4.4-4-18.55,6-36.63,8-54.92,9.67L1000,461a90.89,90.89,0,0,0-11.71,1.43,117.52,117.52,0,0,1-26.67,3.13c-37.51,0-70.69-18.9-91-51.86a133.56,133.56,0,0,1-17.13-44.47c-12.31-60.74,8.8-112.77,61-150.48,23.26-16.8,50.07-25.31,79.67-25.31a177.68,177.68,0,0,1,40.29,4.89c19.89,4.67,37,16.81,50.94,36.09,12,16.58,22.86,33.35,32.42,49.83,15.39,26.58,29.54,47.52,44.52,65.89a125.4,125.4,0,0,1,15.3,22.65A114.86,114.86,0,0,1,1188.15,402c3.83,19.2-.15,37.71-11.22,52.13-11.21,14.59-28.37,23.33-48.33,24.61C1126.73,478.87,1124.85,478.93,1123,478.93Z"/><path id="a-2" data-name="a" class="cls-1" d="M1066.4,413.88c-22,11.11-43.91,13.64-65.94,15.6-6.47.57-13,.94-19.33,2.41C947,439.84,915.6,427,897.24,397.23A103.26,103.26,0,0,1,884.16,363c-10.23-50.49,8.29-89.68,48.65-118.82,28.35-20.47,61-23.16,94.44-15.31,14,3.28,24.56,12.66,32.66,23.9,11,15.21,21.31,31,30.72,47.21,14.17,24.46,29.48,48,47.36,70a96.32,96.32,0,0,1,11.6,17,84.89,84.89,0,0,1,7.8,21.22c4.29,21.47-8.86,37.9-30.8,39.3-16.89,1.08-31.16-5.5-43.59-16.18C1077,426.14,1072,419.86,1066.4,413.88ZM957.72,343.57c18.68,9.18,37.42,11.06,58,4-9.18-12.56-19.62-20.42-34.62-20.17C969.85,327.55,962.59,333.81,957.72,343.57Z"/><path id="e_1" data-name="e 1" d="M755.63,449.36a337.53,337.53,0,0,1-71.17-7.64c-23.13-5-44.77-15.6-64.31-31.48-32.2-26.17-46.87-62.72-42.4-105.69a201.63,201.63,0,0,1,7.57-36.28c15.79-54,55.24-89.35,114.1-102.3a150.27,150.27,0,0,1,32.23-3.39c3.23,0,6.51.09,9.74.29,23.17,1.38,43.77,10.29,59.56,25.75,15.51,15.18,25,35.34,27.42,58.3,2.64,24.94-1.56,47.49-12.09,66.65,27,1.82,47.42,20.08,53.94,48.57,4.34,18.95,1.16,37.88-9,53.28a64.57,64.57,0,0,1-42.65,28.06A345.11,345.11,0,0,1,755.63,449.36Z"/><path id="e_1-2" data-name="e 1" class="cls-1" d="M723.08,345.84c6.34.91,10.44,1.75,14.58,2.06a278.35,278.35,0,0,0,67.06-2.5c18.5-3.07,30.74,5.46,34.92,23.73,4.78,20.86-6.56,39.75-26.77,43.52a306,306,0,0,1-121.78-1.59c-19-4.12-36.09-12.91-51.16-25.16-24.82-20.17-34.23-46.87-31-78.11a174.06,174.06,0,0,1,6.47-30.71c13.37-45.7,45.75-70.58,90.74-80.48a122.83,122.83,0,0,1,33.36-2.42c31.77,1.9,54.3,24.36,57.66,56,3.78,35.7-10.25,62.84-41.85,80C745.59,335.58,735.34,340,723.08,345.84ZM747,262c-25-11.15-66.58,5.79-73.18,29.48,22.61-5,44.69-9.83,64.46-21.64C741.35,268,743.76,265,747,262Z"/><path id="r" d="M456.15,439.45a85.16,85.16,0,0,1-18.07-2c-22.05-4.82-40.71-16.63-55.46-35.11-25.34-31.76-34.11-69.79-25.37-110,13.24-60.9,50.17-107,109.77-137,15.62-7.88,33.42-11.71,54.4-11.71l2.49,0,2.65,0a127.87,127.87,0,0,1,58,14.16,125.69,125.69,0,0,1,19.61,12c22.64,17.15,35,41.2,33.89,66s-15.42,47.41-39.31,62.38c-7.67,4.81-15.35,8-22.12,10.72-2.84,1.16-5.52,2.26-7.88,3.35-4.66,2.16-9.35,4.26-13.88,6.29-11.37,5.1-22.12,9.92-32.18,15.42a26,26,0,0,0-12.91,15.48,11.11,11.11,0,0,0-.39,6.87,219.43,219.43,0,0,1,4.82,23.46c3.78,24.18-8,45-30.78,54.45A71.12,71.12,0,0,1,456.15,439.45Z"/><path id="r-2" data-name="r" class="cls-1" d="M524.06,175a102.58,102.58,0,0,1,61.15,19.76c29.82,22.59,28.56,56.91-3.14,76.78-8.17,5.13-17.68,8.1-26.52,12.19-16,7.42-32.45,14.19-47.93,22.65a57.2,57.2,0,0,0-27.74,33.46,42.51,42.51,0,0,0-.8,24.55,191.18,191.18,0,0,1,4.12,20.17c1.57,10-2.32,16.7-11.77,20.61-8.65,3.57-17.66,3.61-26.66,1.65-15.46-3.38-27.85-11.77-37.63-24-19.81-24.82-25.9-53.17-19.25-83.76,11.73-53.91,44.76-91.26,93.25-115.71C494.27,176.67,508.67,174.71,524.06,175Z"/><path id="v" d="M1650.8,426.46a135.08,135.08,0,0,1-31.68-3.88c-43.54-10.49-78-36.71-99.71-75.81-11.88-21.4-23.26-43.3-34.27-64.47q-6.32-12.17-12.67-24.31l-.74-1.39a127.33,127.33,0,0,1-8-17.41c-6.79-19.19-4.57-38.85,6.1-53.94,10.32-14.6,27.13-23,46.12-23a67.93,67.93,0,0,1,13.43,1.36c22.12,4.43,40.52,17.14,56.26,38.85,11.22,15.47,19.93,28.59,27.43,41.29,5.93,10.06,11.27,20.23,16.43,30.06,3.34,6.37,6.5,12.39,9.8,18.36l2.08,3.8c3.93,7.17,7.64,13.94,11.68,19.29,1,1.4,1.74,1.4,2.11,1.4a3.52,3.52,0,0,0,3.1-2.3,66.1,66.1,0,0,0,5.29-17.26c3.42-19.08,1.92-40.32-4.85-68.89-.3-1.28-.61-2.55-.92-3.83-1.4-5.81-2.86-11.83-3.94-18.39a95.31,95.31,0,0,1-1.29-22.44c1.82-25.46,20.16-43.94,43.6-43.94a49.72,49.72,0,0,1,26.2,7.91,83.56,83.56,0,0,1,26.8,26.9,115.61,115.61,0,0,1,14.78,37.21c2.78,14.29,4.56,28.48,6.28,42.2.67,5.37,1.37,10.91,2.1,16.26l.46,3.33-.26,3.34c-1.5,19.46-3.73,40.34-9.82,61.21C1746.78,392.56,1703.9,426.46,1650.8,426.46Z"/><path id="v-2" data-name="v" class="cls-1" d="M1741.25,274.38c-1.45,18.73-3.46,37-8.66,54.84-14.49,49.67-55.83,75-106.12,62.87-34.77-8.38-62.08-28.9-79.63-60.53-16.12-29.06-31.15-58.72-46.6-88.14a114.32,114.32,0,0,1-6.94-14.69c-7.75-21.9,7.09-38.91,29.92-34.34,16.25,3.26,27.74,13.7,37,26.51,9.12,12.58,17.92,25.46,25.81,38.82,9.17,15.54,17,31.84,25.78,47.65,5.05,9.15,9.93,18.54,16.2,26.83,16,21.23,46.93,17.1,58.32-5.87a96.27,96.27,0,0,0,8.07-25.67c4.94-27.55,1.18-54.72-5.2-81.65-1.58-6.68-3.32-13.34-4.43-20.1a65.38,65.38,0,0,1-1-15.09c1-13.34,10.5-18.8,21.9-11.67a52.33,52.33,0,0,1,16.59,16.55,84.27,84.27,0,0,1,10.82,26.94C1736.79,236.37,1738.65,255.45,1741.25,274.38Z"/><g id="i"><path d="M1451.61,443c-25.11,0-45.19-16.64-52.39-43.43a240,240,0,0,1-6-31.7c-2.79-21.17-10.42-39.25-23.34-55.28-9.06-11.24-17.77-24.21-27.39-40.82-6.78-11.69-14.11-27.5-10.61-46.12,4.75-25.27,27.13-39.32,34.49-43.93a74.12,74.12,0,0,1,39.4-11.48c21.16,0,41,9,55.72,25.3,8.46,9.35,13.93,19.59,18.75,28.63l.17.3c3.58,6.71,6.78,13.38,9.87,19.83,3,6.29,5.87,12.23,8.9,17.89,11,20.39,22.62,45.12,26.09,73.93a206.3,206.3,0,0,1,1.08,26.35c0,2.14,0,4.16,0,5.53l.12,5.16-1.53,4.92c-6.21,19.91-17,44.49-45.11,58.06A65,65,0,0,1,1451.61,443Z"/><path d="M1430.36,176.65c-40.36,0-73.8-33.39-74.55-74.43a71.82,71.82,0,0,1,20.42-51.84,70.59,70.59,0,0,1,50.4-21.46h.54c40.7,0,74.07,33.53,74.38,74.74a72.57,72.57,0,0,1-20.9,52,70.21,70.21,0,0,1-50,21Z"/></g><g id="i-2" data-name="i"><path class="cls-1" d="M1495,368.79c-6.1,19.54-14.1,32.06-28.78,39.13-17.68,8.51-31.65,2.37-36.71-16.45a215.68,215.68,0,0,1-5.2-27.66c-3.48-26.43-13.15-49.94-30-70.86-9.25-11.47-17.27-24.09-24.67-36.86-10.51-18.13-12.43-31.55,13.41-47.76,18.1-11.36,40.43-8,55.2,8.3,5.94,6.56,10.28,14.75,14.5,22.65,6.62,12.41,12.16,25.4,18.81,37.78,10.67,19.87,19.86,40.29,22.58,62.85C1495.45,350.89,1494.84,362.1,1495,368.79Z"/><path class="cls-1" d="M1430.53,145.28c-23.42.1-42.92-19.52-43.36-43.63-.41-22.74,17.3-41.2,39.7-41.37,23.44-.17,43.14,19.66,43.32,43.62C1470.36,126.86,1452.8,145.19,1430.53,145.28Z"/></g></g><g id="Layer_15_copy" data-name="Layer 15 copy"><path d="M909.94,555.15H879.1v12.7h28.31v10.39H879.1v15.37h32.26v10.76H867.2V544.56h42.74Z"/><path d="M928.68,590.25a7.89,7.89,0,0,0,1.55,4.38c1.41,1.54,4,2.31,7.79,2.31a11.74,11.74,0,0,0,5.3-1,3.25,3.25,0,0,0,2-3,3.31,3.31,0,0,0-1.58-3q-1.59-1-11.79-3.49-7.35-1.86-10.35-4.66t-3-8a14,14,0,0,1,4.7-10.53q4.69-4.39,13.21-4.4,8.09,0,13.18,3.31t5.84,11.42H944.22a7,7,0,0,0-1.23-3.53q-1.86-2.36-6.34-2.35-3.69,0-5.25,1.17a3.41,3.41,0,0,0-1.57,2.76,3,3,0,0,0,1.67,2.88c1.11.63,5,1.69,11.76,3.21q6.74,1.62,10.1,4.91a11.31,11.31,0,0,1,3.32,8.32,13.55,13.55,0,0,1-4.78,10.73q-4.77,4.15-14.75,4.16-10.18,0-15-4.41a14.44,14.44,0,0,1-4.85-11.21Z"/><path d="M960.55,568.78v-8.24h6V548.21h11.15v12.33h7v8.24h-7v23.37c0,1.82.23,2.94.68,3.39s1.81.67,4.11.67l1.09,0c.38,0,.75,0,1.12-.06v8.64l-5.34.2q-8,.28-10.91-2.84c-1.26-1.32-1.9-3.36-1.9-6.12V568.78Z"/><path d="M991.75,592.23h12v12.14h-12Z"/><path d="M1036.87,592.8q2.4-5.88,11.38-12.45,7.8-5.73,10.09-8.2a12.3,12.3,0,0,0,3.52-8.44,9.54,9.54,0,0,0-2-6.21,7,7,0,0,0-5.77-2.47q-5.14,0-7,3.93a20,20,0,0,0-1.27,7.23h-11q.27-7.52,2.65-12.14,4.51-8.81,16-8.8,9.1,0,14.49,5.17t5.38,13.7a18.86,18.86,0,0,1-3.8,11.6,38.35,38.35,0,0,1-8.2,7.51l-4.52,3.28q-4.25,3.09-5.8,4.47a12.92,12.92,0,0,0-2.63,3.2h25v10.19h-39.26A28,28,0,0,1,1036.87,592.8Z"/><path d="M1114.38,553q4.41,7.9,4.41,22.48T1114.38,598q-4.39,7.88-15.36,7.88T1083.66,598q-4.41-7.86-4.41-22.43t4.41-22.48q4.41-7.92,15.36-7.91T1114.38,553Zm-22,38c1.08,3.58,3.3,5.37,6.64,5.37s5.55-1.79,6.59-5.37,1.56-8.76,1.56-15.52q0-10.63-1.56-15.75c-1-3.4-3.24-5.11-6.59-5.11s-5.56,1.71-6.64,5.11-1.62,8.66-1.62,15.75Q1090.76,585.66,1092.38,591Z"/><path d="M1127.37,563.79v-7.87a48.89,48.89,0,0,0,7.46-.73,9.74,9.74,0,0,0,7.73-7.3,9.88,9.88,0,0,0,.43-2.36h9.41v58.84h-11.54V563.79Z"/><path d="M1171.11,579.09a14,14,0,0,1,6.38-6.05c-2.77-1.89-4.58-3.94-5.41-6.14a17.45,17.45,0,0,1-1.25-6.19,14.62,14.62,0,0,1,4.71-10.94c3.15-3,7.58-4.52,13.32-4.52s10.17,1.51,13.31,4.52a14.59,14.59,0,0,1,4.72,10.94,17.67,17.67,0,0,1-1.25,6.19q-1.25,3.3-5.39,5.74a16.11,16.11,0,0,1,6.39,6.45,18.71,18.71,0,0,1,2.15,9,17,17,0,0,1-5.37,12.64q-5.36,5.22-15,5.22t-14.56-5.22a17.68,17.68,0,0,1-5-12.64A18.51,18.51,0,0,1,1171.11,579.09ZM1182.83,594a8.9,8.9,0,0,0,12.14,0,9.63,9.63,0,0,0,2.19-6.74q0-4.5-2.23-6.83a8.94,8.94,0,0,0-12.06,0q-2.23,2.32-2.24,6.83A9.63,9.63,0,0,0,1182.83,594Zm.71-26.78a7,7,0,0,0,5.34,2,6.93,6.93,0,0,0,5.33-2,7.36,7.36,0,0,0,1.88-5.23,7.55,7.55,0,0,0-1.88-5.46,7,7,0,0,0-5.33-2,7.14,7.14,0,0,0-5.34,2,7.48,7.48,0,0,0-1.92,5.46A7.3,7.3,0,0,0,1183.54,567.24Z"/></g><g id="Layer_13_copy" data-name="Layer 13 copy"><path d="M646.08,76.52c0,18.25-17.43,26.26-38.51,26.26H560l16.49-82.43h43.69c19.55,0,29.56,7.18,29.56,19.66,0,9.54-5.65,16.49-14.72,20.38C642.08,63.45,646.08,69,646.08,76.52Zm-27.55-.71c0-3.65-3.18-5.41-6.83-5.41H593.79L591.2,83.35h17.9C614.52,83.35,618.53,80.88,618.53,75.81Zm-18.61-36L597.45,52h14.13c6.36,0,9.18-2.7,9.18-7.18,0-3.41-2.71-5.06-7.3-5.06Z"/><path d="M716.51,78.76l13.78,24H701.44L689.78,82.06H683l-4.12,20.72H651l16.49-82.43h37c21.78,0,34.27,10,34.27,27.08C738.77,62.15,730.52,73.46,716.51,78.76Zm-16.25-37H691l-3.88,19.31h11.42c7.66,0,12.13-4,12.13-11C710.62,44.25,706.62,41.78,700.26,41.78Z"/><path d="M889.39,20.35l-42.86,82.43h-29.8L812,59.33l-22.61,43.45H759.62l-9.9-82.43h27.44l5.3,47,24.5-47h25.55L837.22,68l24.85-47.69Z"/><path d="M976.78,20.35l-16.49,82.43H937.45L913.78,64.39l-7.66,38.39H879l16.49-82.43h22.85L942,58.74l7.66-38.39Z"/></g></g></svg>