<svg xmlns="http://www.w3.org/2000/svg" viewBox="0 0 525.95 481"><g id="Layer_2" data-name="Layer 2"><g id="Layer_7" data-name="Layer 7"><path d="M519.6,130.82c-2.57-12.33-12.21-53.59-28.37-66.94-11.6-9.56-66.76-27.39-98.61-37.17C352.81,14.5,303.42,1,289.06.09,263.8-1.43,243,17.3,224.73,33.83c-5.83,5.26-11.33,10.23-16.46,14.05-29.18,21.72-55.08,44-77,66.12a442.72,442.72,0,0,0-35.77,40.65,307.69,307.69,0,0,0-26.46,40.07c-9.52,17.42-28,57.58-43.37,97.7C6.44,342.54-2.06,376.14.42,392.28c.6,3.89,3.1,9.91,17.28,22.05a310.57,310.57,0,0,0,34.4,24.93c15.27,9.68,54.57,32.94,89.7,39.82A93.69,93.69,0,0,0,159.86,481c21.18,0,31.76-9.26,37-18,11-18.36,60.44-60.46,117.56-100.11C382,315.94,445.56,281.8,488.76,269.17c12-3.5,27.59-14.32,34.11-46C527.91,198.61,526.72,165,519.6,130.82Zm-43.38-30.67c-31.56,30.25-74.08,46.15-109.68,71.39-34.71,24.62-66.83,52.75-97.26,82.45-41.67,40.68-77.6,88.18-123.48,123.84-18,14-35.64,29.44-56.88,38.39A70.56,70.56,0,0,1,71,421.34c-7.14,1-14,0-20-4.27-7-4.92-14-9.92-20.55-15.44s-13-9.35-12.41-18.75A96.82,96.82,0,0,1,19.85,370c3.56-17.86,9.45-35.29,15.59-52.41q3.38-9.4,7-18.74c7.57-19.69,15.85-39.34,23.39-56.19s14.35-30.87,19-39.32C109.63,157.86,156,109.08,219,62.24c5.81-4.32,11.62-9.56,17.77-15.12C252.43,33,270.21,16.87,288,18c10.7.64,53.43,11.76,99.39,25.87,14.29,4.39,28.55,8.88,42.69,13.71q10.6,3.62,21.12,7.52c6.1,2.27,12.78,3.72,18.09,7.68C476.67,78.26,484.53,92.18,476.22,100.15Z"/><path d="M264.13,40.19l-.12,0,4-.53h-.09l4,.54-.11,0,3.58,1.51-.14-.08,3,2.34a.43.43,0,0,1-.11-.12l2.34,3-.06-.11,1.51,3.58a.88.88,0,0,1-.05-.15l.54,4v-.12l-.53,4a.24.24,0,0,1,0-.08l-1.51,3.59a.3.3,0,0,1,.06-.11l-2.35,3,.05-.06-3,2.35.09-.06-3.58,1.51.14,0-4,.54a.75.75,0,0,1,.15,0l-4-.53a.66.66,0,0,1,.15,0l-3.58-1.51a.57.57,0,0,1,.13.08l-3-2.35a.47.47,0,0,1,.1.1l-2.34-3a.41.41,0,0,1,.05.09L253.93,58l0,.11-.54-4v0A11.39,11.39,0,0,0,254.71,60a11.22,11.22,0,0,0,3.11,4.82,11.16,11.16,0,0,0,4.82,3.11,11.49,11.49,0,0,0,5.78,1.29l4-.54A15,15,0,0,0,279,64.79l2.34-3a14.94,14.94,0,0,0,2.05-7.57c0-.2-.48-3.85-.54-4,0,0,0-.06,0-.09-.47-1.22-1-2.42-1.52-3.6l0,0c-.1-.16-2.23-2.93-2.36-3.07a15.68,15.68,0,0,0-6.88-4,17.14,17.14,0,0,0-4.14-.57h-.09c-.15,0-3.89.5-4,.54l-.08,0c-.23.06-3.44,1.43-3.65,1.54a13.31,13.31,0,0,0-3.15,2.44l-2.35,3,0,0a.05.05,0,0,0,0,0c-.53,1.19-1,2.39-1.52,3.6a15,15,0,0,0-.29,2.07,20.41,20.41,0,0,0-.27,2.07,12.47,12.47,0,0,0,.57,4.15c.05.18,1.43,3.47,1.53,3.64l.06.09c-.65-1,1.55,2.31,2.46,3.16a11.35,11.35,0,0,0,5,3.18c2.2.93,3.05,1.44,5.91,1.33H268l4-.54.12,0a11.23,11.23,0,0,0,5.1-2.69,11.33,11.33,0,0,0,3.87-4.2,11.28,11.28,0,0,0,1.78-5.58,11.47,11.47,0,0,0-.27-6l-1.51-3.59a15.24,15.24,0,0,0-5.38-5.38l-3.59-1.51a15.18,15.18,0,0,0-8,0Z"/><path d="M217.74,107.13a1.09,1.09,0,0,1,0-.18l-.27,2a1.61,1.61,0,0,1,.1-.36l-.76,1.79a2,2,0,0,1,.18-.32l-1.17,1.51a2.57,2.57,0,0,1,.33-.33l-1.52,1.17a2.06,2.06,0,0,1,.41-.23l-1.79.75a2.11,2.11,0,0,1,.36-.09l-2,.27H212a7.21,7.21,0,0,0,6.85-4.61,5.61,5.61,0,0,0,.65-2.89l-.27-2a7.55,7.55,0,0,0-1.93-3.31l-1.52-1.17a7.51,7.51,0,0,0-3.78-1h-.38l-2,.27-.14,0-.18,0c-.49.16-1.41.57-1.88.79l-.16.09-.16.1a18.14,18.14,0,0,0-1.63,1.26,3.33,3.33,0,0,0-.25.28,16.89,16.89,0,0,0-1.23,1.59l-.09.17a17.23,17.23,0,0,0-.8,1.87c0,.08-.05.15-.07.23a7.81,7.81,0,0,0-.15,1.13,9.28,9.28,0,0,0-.15,1.18,8.42,8.42,0,0,0,2.2,5.31,8.28,8.28,0,0,0,5.3,2.19l2-.26a7.55,7.55,0,0,0,3.31-1.93l1.17-1.52a7.41,7.41,0,0,0,1-3.79Z"/><path d="M316.94,77.07a13.43,13.43,0,0,0,4.51-4.45,11.78,11.78,0,0,0,1.47-3.37A1.84,1.84,0,0,0,323,69l.4-3a4.17,4.17,0,0,0,0-.5l-.41-3a2.17,2.17,0,0,0,0-.25,18,18,0,0,0-1.28-3,8.45,8.45,0,0,0-2.9-3.15,8.42,8.42,0,0,0-3.82-2l-3-.4a11.21,11.21,0,0,0-5.68,1.54l-2.35,1.62a8.48,8.48,0,0,0-3.16,2.9,8.49,8.49,0,0,0-2,3.82,8.47,8.47,0,0,0-.2,4.49,8.42,8.42,0,0,0,1.33,4.18l1.76,2.28a11.26,11.26,0,0,0,5,2.89l3,.4a11.23,11.23,0,0,0,5.68-1.53l2.34-1.63-15.39-4,.06.11L301.14,68a2,2,0,0,1,.14.48l-.4-3a2.79,2.79,0,0,1,0,.5l.4-3a2.72,2.72,0,0,1-.13.49l1.13-2.69a2.38,2.38,0,0,1-.25.44L303.78,59a2.29,2.29,0,0,1-.27.27l2.28-1.75a1.1,1.1,0,0,1-.21.14,8.45,8.45,0,0,0-3.15,2.9,8.42,8.42,0,0,0-2,3.82,8.68,8.68,0,0,0-.2,4.49A8.4,8.4,0,0,0,301.55,73l1.76,2.28a11.23,11.23,0,0,0,5,2.89l3,.4a11.1,11.1,0,0,0,5.68-1.53Z"/><path d="M260.83,137.16l-.68.94a5.61,5.61,0,0,0-.89,2.79,6.68,6.68,0,0,0,1.48,5.54,5.65,5.65,0,0,0,2.1,1.93l1.79.76a7.71,7.71,0,0,0,4,0l1.79-.76a7.46,7.46,0,0,0,2.69-2.69l.68-.94a5.5,5.5,0,0,0,.89-2.78,6.69,6.69,0,0,0-1.48-5.55,5.66,5.66,0,0,0-2.1-1.93l-1.79-.75a7.51,7.51,0,0,0-4,0l-1.79.75a7.62,7.62,0,0,0-2.69,2.69Z"/><path d="M265.36,88.52a1.31,1.31,0,0,1-.2-.21l1.17,1.52-.09-.16.75,1.79a2.3,2.3,0,0,1-.1-.35l.27,2a1.61,1.61,0,0,1,0-.38l-.27,2a1.56,1.56,0,0,1,.1-.37l-.76,1.79a3.72,3.72,0,0,1,.19-.34l-1.17,1.52a1.66,1.66,0,0,1,.26-.27L264,98.22a1.16,1.16,0,0,1,.24-.14l-1.79.75.27-.07-2,.27h.1a7.21,7.21,0,0,0,6.85-4.61,5.61,5.61,0,0,0,.65-2.89,7.6,7.6,0,0,0-2.2-5.3,7.46,7.46,0,0,0-5.3-2.2,15.29,15.29,0,0,0-2.14.29,2,2,0,0,0-.23.06,9,9,0,0,0-3.55,2.07l-.2.19a15.69,15.69,0,0,0-1.23,1.59,8.69,8.69,0,0,0-1,2.18,9,9,0,0,0-.08,4.74,7.46,7.46,0,0,0,.87,2.14,14.11,14.11,0,0,0,1.24,1.64l.2.21a5.76,5.76,0,0,0,2.41,1.55,6.85,6.85,0,0,0,5.78,0,5.73,5.73,0,0,0,2.42-1.55,7.56,7.56,0,0,0,2.19-5.31,7.42,7.42,0,0,0-2.19-5.3Z"/><path d="M340.3,80.14l-.82,1.66a5.61,5.61,0,0,0-.89,2.79,6.77,6.77,0,0,0,1.48,5.54,5.65,5.65,0,0,0,2.1,1.93l1.8.76a7.47,7.47,0,0,0,4,0l1.79-.76a7.49,7.49,0,0,0,2.7-2.69l.81-1.66a5.61,5.61,0,0,0,.89-2.79,6.68,6.68,0,0,0-1.48-5.54,5.73,5.73,0,0,0-2.1-1.93l-1.79-.76a7.71,7.71,0,0,0-4,0l-1.79.76a7.46,7.46,0,0,0-2.69,2.69Z"/><path d="M318.06,111.09l-.13.07,1.79-.76a.45.45,0,0,1-.11,0l2-.26h-.11l2,.27-.09,0,1.79.75-.11-.06,1.51,1.17-.07-.08,1.17,1.52a1.18,1.18,0,0,1-.11-.19l.76,1.79a1.32,1.32,0,0,1-.08-.33l.26,2a2.26,2.26,0,0,1,0-.45l-.27,2a2,2,0,0,1,.09-.33l-.76,1.79a.86.86,0,0,1,.1-.16l-1.18,1.52a.47.47,0,0,1,.1-.1l-1.52,1.17.09,0-1.8.75.1,0-2,.27h.1l-2-.27.15,0-1.79-.75.13.06a5.51,5.51,0,0,0,2.79.89,7.67,7.67,0,0,0,7.47-3.58l.76-1.79a7.71,7.71,0,0,0,0-4l-.76-1.79a7.54,7.54,0,0,0-2.69-2.69,8,8,0,0,0-4.16-1.13,6.87,6.87,0,0,0-2.06.28c-.36.12-1.49.59-1.83.77a7.11,7.11,0,0,0-1.66,1.27,7.3,7.3,0,0,0-1.27,1.67c-.16.3-.34.78-.42,1a8.66,8.66,0,0,0-.41,1,9.23,9.23,0,0,0-.34,2.45,8.81,8.81,0,0,0,.15,1.23,9.48,9.48,0,0,0,.17,1.21,8.36,8.36,0,0,0,2.11,3.65,9,9,0,0,0,.81.63,6.74,6.74,0,0,0,.82.63,18.8,18.8,0,0,0,1.84.78l.1,0c-1.19-.36,1.42.3,2.06.27a20.58,20.58,0,0,0,2.07-.28,7.35,7.35,0,0,0,2-.85,8.33,8.33,0,0,0,3.45-4.48,5.64,5.64,0,0,0,.13-3,5.51,5.51,0,0,0-.89-2.79l-1.17-1.52a7.39,7.39,0,0,0-3.31-1.92l-2-.27a7.41,7.41,0,0,0-3.79,1Z"/><path d="M409.67,92.16a15.59,15.59,0,0,0,2.15-8l-.54-4s0,0,0-.07a11.81,11.81,0,0,0-1.54-3.62c-.36-.57-.6-.79-1.21-1.59a16.1,16.1,0,0,0-1.22-1.57l-.05,0-3-2.34-.09-.06a13.36,13.36,0,0,0-3.77-1.59,18.86,18.86,0,0,0-2.2-.31,16.85,16.85,0,0,0-2.24-.28h-.2l-4,.54-.25,0-.11.05-3.58,1.51-.07,0a13.89,13.89,0,0,0-3.17,2.44,15.82,15.82,0,0,0-2.44,3.15A15.3,15.3,0,0,0,380,84.22a.41.41,0,0,0,0,.11l.53,4s0,0,0,.08a12.44,12.44,0,0,0,.78,1.87,15.14,15.14,0,0,0,.83,1.92,11.31,11.31,0,0,0,3.86,4.2,11.24,11.24,0,0,0,5.1,2.69,11.48,11.48,0,0,0,6,.27,11.21,11.21,0,0,0,5.58-1.78l3-2.35a15,15,0,0,0,3.85-6.62l.54-4A15,15,0,0,0,408.08,77l-.07-.12,1.51,3.58a.83.83,0,0,1,0-.15l.54,4a.21.21,0,0,1,0-.11l-.54,4a.32.32,0,0,1,0-.09L408,91.7l.05-.08-2.34,3,.09-.09-3,2.34.16-.09-3.59,1.51a1.54,1.54,0,0,1,.37-.09l-4,.53a3.38,3.38,0,0,1,.45,0l-4-.53a1.16,1.16,0,0,1,.32.08l-3.58-1.51a.51.51,0,0,1,.16.09l-3-2.35a.47.47,0,0,1,.1.1l-2.34-3,0,.08-1.51-3.58a.29.29,0,0,1,0,.09l-.53-4v.11l.54-4c0,.05,0,.1,0,.15l1.51-3.58a.83.83,0,0,1-.07.13A11.11,11.11,0,0,0,382,82.59a11.31,11.31,0,0,0,.27,6,11.32,11.32,0,0,0,2.68,5.1,11.34,11.34,0,0,0,4.21,3.86l3.59,1.51a15,15,0,0,0,8,0l3.58-1.51a15.1,15.1,0,0,0,5.39-5.38Z"/><path d="M161.89,143l2.21-2.2a8.42,8.42,0,0,0,2.2-5.31,5.66,5.66,0,0,0-.65-2.89,5.6,5.6,0,0,0-1.55-2.41,7.55,7.55,0,0,0-5.3-2.2,7.83,7.83,0,0,0-5.31,2.2l-2.2,2.21a8.36,8.36,0,0,0-2.2,5.3,8.36,8.36,0,0,0,2.2,5.3,7.55,7.55,0,0,0,5.3,2.2,7.78,7.78,0,0,0,5.3-2.2Z"/><path d="M216.15,171.71c9.66,0,9.67-15,0-15s-9.66,15,0,15Z"/><path d="M168.51,191.57l2.21-2.2a5.66,5.66,0,0,0,1.55-2.41,6.75,6.75,0,0,0,0-5.78,5.63,5.63,0,0,0-1.55-2.42,7.55,7.55,0,0,0-5.3-2.19,7.82,7.82,0,0,0-5.31,2.19l-2.2,2.21a5.51,5.51,0,0,0-1.55,2.41,6.75,6.75,0,0,0,0,5.78,5.45,5.45,0,0,0,1.55,2.41,7.5,7.5,0,0,0,5.3,2.2,7.78,7.78,0,0,0,5.3-2.2Z"/><path d="M104.54,240.11l2.21-2.21a8.28,8.28,0,0,0,2.19-5.3,5.61,5.61,0,0,0-.64-2.89,5.73,5.73,0,0,0-1.55-2.42,7.56,7.56,0,0,0-5.31-2.19,7.82,7.82,0,0,0-5.3,2.19l-2.21,2.21a7.73,7.73,0,0,0,0,10.61,7.56,7.56,0,0,0,5.31,2.19,7.84,7.84,0,0,0,5.3-2.19Z"/><path d="M128.8,190.68v-1.21c0-9.65-15-9.67-15,0v1.21c0,9.66,15,9.67,15,0v-1.21c0-9.65-15-9.67-15,0v1.21c0,9.66,15,9.67,15,0Z"/><path d="M153.49,284.65l-2.2,2.21a8.36,8.36,0,0,0-2.2,5.3,5.66,5.66,0,0,0,.65,2.89,5.6,5.6,0,0,0,1.55,2.41,7.55,7.55,0,0,0,5.3,2.2,7.78,7.78,0,0,0,5.3-2.2l2.21-2.2a7.71,7.71,0,0,0,0-10.61,7.55,7.55,0,0,0-5.3-2.2,7.83,7.83,0,0,0-5.31,2.2Z"/><path d="M235,197.15c-1.1-3-2-5.31-4.28-7.62a15.1,15.1,0,0,0-10.66-4.43,15,15,0,0,0-7.62,2.08l3.59-1.52h0l4-.54h0l4,.54h0l3.58,1.52h0l3,2.35,0,0,2.35,3a1.66,1.66,0,0,1-.18-.35l1.51,3.58c-.09-.21-.17-.43-.25-.64A11.21,11.21,0,0,0,231.3,190a11.34,11.34,0,0,0-4.21-3.86,11.21,11.21,0,0,0-5.58-1.78,11.38,11.38,0,0,0-6,.27L212,186.15a15.15,15.15,0,0,0-5.38,5.38l-1.51,3.59a15,15,0,0,0,0,8c1.11,3,2,5.31,4.28,7.61a15,15,0,0,0,18.28,2.36L224,214.57h0l-4,.53h0l-4-.53h0l-3.58-1.51h0l-3-2.35,0,0-2.34-3a2.26,2.26,0,0,1,.17.35l-1.51-3.58c.09.21.17.42.25.64a11.32,11.32,0,0,0,2.68,5.1,11.45,11.45,0,0,0,4.21,3.87,11.31,11.31,0,0,0,5.58,1.78,11.48,11.48,0,0,0,6-.27l3.58-1.51a15,15,0,0,0,5.38-5.39l1.51-3.58a15,15,0,0,0,0-8Z"/><path d="M338.37,159.8v-2.21a5.76,5.76,0,0,0-.65-2.89,7.75,7.75,0,0,0-6.85-4.61,7.62,7.62,0,0,0-5.31,2.2,7.77,7.77,0,0,0-2.19,5.3v2.21a7.21,7.21,0,0,0,4.61,6.85,5.61,5.61,0,0,0,2.89.65,7.57,7.57,0,0,0,5.3-2.2,7.77,7.77,0,0,0,2.2-5.3Z"/><path d="M81.44,324.45a4.69,4.69,0,0,1-.14-.65l.4,3a4.32,4.32,0,0,1,0-.88l-.4,3a4.38,4.38,0,0,1,.26-.85l-1.14,2.69a6,6,0,0,1,.46-.77l-1.76,2.28a5.26,5.26,0,0,1,.63-.62l-2.28,1.76a4.76,4.76,0,0,1,.57-.34l-2.68,1.13a2.86,2.86,0,0,1,.41-.15,12,12,0,0,0,6.73-5.17,11.52,11.52,0,0,0,1.13-8.67,11.25,11.25,0,0,0-13.84-7.86,15,15,0,0,0-8.7,6.85,14.6,14.6,0,0,0-1.36,11.25,11.8,11.8,0,0,0,5.17,6.73,11.25,11.25,0,0,0,16.52-12.71Z"/><path d="M75.51,388.31l-.28-.33c-4.14-5-13.16-1-12.8,5.3a9.71,9.71,0,0,0,2.5,6.08c4.14,4.94,13.15.95,12.8-5.31l0-.43c-.54-9.6-15.55-9.66-15,0l0,.43,12.81-5.3,1.89,4.53-12.81,5.3.28.34c6.2,7.41,16.77-3.25,10.61-10.61Z"/></g></g></svg>