<svg xmlns="http://www.w3.org/2000/svg" viewBox="0 0 3817.15 834.33"><defs><style>.cls-1{fill:#ff9280;}.cls-2{fill:#fee1c1;}.cls-3{fill:#255613;}.cls-4{fill:#dd0101;}.cls-5{fill:#fb7f12;}.cls-6{fill:#ab0101;}.cls-7{fill:#028902;}.cls-8{fill:#ff7e27;}.cls-9{fill:#7c3200;}</style></defs><g id="Layer_2" data-name="Layer 2"><g id="Colored_long" data-name="Colored long"><g id="Layer_11" data-name="Layer 11"><g id="Layer_23" data-name="Layer 23"><path class="cls-1" d="M2349,596.25C2349,482,2436.85,394,2543.87,396.81c105.6,2.75,194.5,93.15,200,204.72,5.63,114.75-78.6,210.2-189.67,210.2C2441.53,811.73,2349,713.85,2349,596.25Z"/><g id="Layer_19" data-name="Layer 19"><path class="cls-2" d="M2468.35,612.33c-31.67,1.92-14.26,54.27-1.83,69,16,18.94,43.15,41.56,68.69,39.23,29.73-2.71,27.18-38,24.79-59.86a24.38,24.38,0,0,1,.6-8.87,21.07,21.07,0,0,1,.92-2.71c7.63-12.36,22.63-18.36,35.69-12.79a26.06,26.06,0,0,1,3.58,1.6,25.54,25.54,0,0,1,6.36,4.83c13,13.56,16.5,30.1,31.94,11.8,9.95-11.78,23.79-28.53,25.79-44.44,3-23.86-1.05-34.36-14.48-51.37-3.83,1.15-6.45-2.59-8.08-5.46-10.69,3.93-18,15.25-28.67,19.62-14.35,5.88-23.16-8.29-28.5-17.15-2.18-3.61-3.81-14.63-4.7-17.23-2.08-6,.63-13,1.54-19.08,1.82-12.14,6.54-26.89-5.12-35.27-10.39-7.47-29.59-7.08-42.7-8.79-15.69-2-24,7.49-36.3,16.7-8,6-15.21,9.59-19.28,19.48s-1.91,19.47,5.73,26.86c8,7.76,20.83,10.51,27.11,20.06,4.57,6.95,4.17,13.5,3.67,22-.3,5,3.43,17,1,21C2509.17,613.32,2483.52,602.81,2468.35,612.33Z"/></g><path class="cls-3" d="M2394.9,432.46a4.9,4.9,0,0,1-.88,1.19c-1.84,1.8-4.65,1.78-7,1.3-3.6-.73-7.07-2-10.66-2.72-6.41-1.38-13-2.46-19.09-4.85-5.12-2-9.41-5.68-14.62-7.46a16.87,16.87,0,0,0-9.6-.24,29.42,29.42,0,0,0-4.57,1.59c-1.14.49-3.06.61-3.5,2a.79.79,0,0,0,.15.81,1.07,1.07,0,0,0,.49.24c1.09.27,2.1-.13,3.18,0,5.77.51,10.74,3.65,14.78,7.63,6.39,6.3,13.33,11.66,19.63,18.1,7.27,7.42,15.66,11.31,26.19,9.13,9-1.85,18-11.16,24.79-17a44.44,44.44,0,0,0,8.84-9.54c3.73-5.94,3.47-13.12,2.09-19.74-1.52-7.32-4.12-14.38-6.07-21.59a12,12,0,0,1-.66-2.75c-.16-.78-.91-10.68-2-10.34-.58.17-.72,1.17-.77,1.64-.5,4.47.08,9-.17,13.47a103.29,103.29,0,0,1-3.24,18.72,14.25,14.25,0,0,1-1.52,3.9,5.07,5.07,0,0,1-2.28,2.14c-1.75.75-3.75.12-5.41-.59a22.46,22.46,0,0,1-6.77-4.69,31.29,31.29,0,0,1-2.71-3c-.72-.92-1.33-2.29-2.42-2.81-2-.94-.7,2.49-.43,3.2a102,102,0,0,1,3.91,12c.66,2.76,1.61,5.65,1,8.51A6.57,6.57,0,0,1,2394.9,432.46Z"/><path class="cls-4" d="M2756.33,552.92a321.11,321.11,0,0,0-31.16-73.42c-18.44-31.75-49.55-52.43-82.63-66.63-27.56-11.83-57.44-23.6-87.37-27.43a149.14,149.14,0,0,0-32.85-.67c-81.93,7.86-141.1,54.81-184.33,122.36-14.53,22.7-20.59,47.64-24.48,74-4,27.17-7.45,53.77-1,80.89,6,25.07,18,48.85,30.87,71,37.6,64.5,125.85,98.08,197.43,101.11,63.75,2.71,114.8-25.31,158.66-69.37,22.84-23,40.21-54.56,52.45-84.36,8-19.35,13.13-39.95,13.62-60.94C2766,597.75,2762.54,575.05,2756.33,552.92ZM2551.65,791.66c-97-5.1-178.17-89.42-183.8-191.27-5.82-105.09,70.37-192.76,172.91-192.76,105.5,0,193.29,92.25,193.29,202.65C2734.05,717.11,2651.28,796.88,2551.65,791.66Z"/><g id="Layer_18" data-name="Layer 18"><path class="cls-5" d="M2545.15,697.73c-5.77-1.57-19.68-1-24-3-6-2.83-3.6,18.4,0,26.89,8.77,20.48,33.74-10.14,19.68-16.2"/><path class="cls-5" d="M2511.15,691.73c-1.94-1-13.38-10.27-17-12-4.85-2.32-12.91,16.63-11.91,21.83,1.54,8,10.21,7.58,16.37,5.57,3.74-1.22,16.21-11,8.31-14.06"/><path class="cls-5" d="M2473,662.22c-12.24.36-17.1,27.31-2.67,27.8,7.68.25,18.37-8.39,15.84-14.29-2.42-5.64-8.33-8.55-11-16-.94.34-3.63,3.41-4.48,4"/><path class="cls-5" d="M2452.92,636c-12.26-3.24-21.79,24.38-4.63,26.27,3.95.43,6.43-1.25,9.55-3.22,4.71-3,13.24-2.48,10.31-7.31a50.91,50.91,0,0,1-6-16"/><path class="cls-5" d="M2652.15,631.73c1.63,0-3.17,14.35-11,18-6.84,3.19,6.88,16.42,17,15.42,21.08-2.09,8.75-30.47,0-23"/><path class="cls-5" d="M2662.15,609.73c-2.51-2.18-3.06,13.16-9,19-4.56,4.48,10,13.36,17.3,13.45,16.85.2,6.86-27.47-2.3-23.94"/><path class="cls-5" d="M2662.15,582.73c.28-5.55,2.53,12.95-1,24-.76,2.39,8.42.48,11.24,1.88,7.17,3.56,13.51.33,16-7.34,1.69-5.2-2.63-19.8-9.45-13.88"/><path class="cls-5" d="M2652.15,554.73c-4.84,4-11.43.77-5,4,2,1,2.44,4.35,5,8,5.32,7.58,12.53,18,11,22-5.18,13.63,35.18-29.07,13-34"/><path class="cls-5" d="M2581.15,457.73c-5-7.89-15.2,3.85-16.35,8.52-.8,3.26-9.28,18.69-5.65,19.48,5.52,1.2,19.68,6.58,21,4C2582.92,484.31,2581.76,462.44,2581.15,457.73Z"/><path class="cls-5" d="M2545.49,457c-10.63-3.19-17.32,28.71-4.34,28.71a118,118,0,0,1,16,1c6.86.86-5.08-23.15-5.6-28.83-2-.51-4-1.27-5.09-1.58,0,1.83-.81.9-1.74,1.47"/><path class="cls-5" d="M2521.58,458.56c-8-8.29-22.39,45.82-5.43,32.17,3.84-3.09,15.11-3.54,20-7,5.83-4.12-9.17-20.07-14.58-25.62,0,1.29-.65.53-1.53,1.22"/><path class="cls-5" d="M2492.27,472.44c-8-7.5-21.65,11.3-13.9,20.45,3.58,4.23,11.13,15.85,17.78,13.84,5.18-1.56,11.15-12.6,15-15-5.82-3.41-11.56-18.77-19.66-20.83"/><path class="cls-5" d="M2470.67,493.27c-4.35,3.36-9.2,6.46-9.19,12.73,0,7.18,15.37,24.56,17.67,17.73,1.28-3.8,12-15,17-16,5.43-1.09-21.9-15.61-26.26-12.91"/></g><path class="cls-6" d="M2607,472.15c0,.58-.06,1.16-.1,1.74-.83,9.89-6.26,18.47-9.63,27.6-1.67,4.49-2.46,9-4.5,13.4-2.46,5.33-5.21,10.55-7.05,16.14-1.13,3.44-2,17.19-8.76,13.85a8,8,0,0,1-3.2-3.38c-3.8-6.76-2.54-10.47,1.64-16.23,1.7-2.32,2.52-5.14,3.33-7.9q1.74-6,3.47-11.9c.83-2.85,1.65-6,.5-8.68A10.57,10.57,0,0,0,2577,492c-1.54-.67-3.48-.47-4.9-1.39-4.2-2.76,8.52-13.59,8.94-17.26a8.76,8.76,0,0,0-6.41-9.21c-12.34-3-10.71,14-12.28,20.85-.87,3.7-12.09,3.15-12.82-.54-.55-2.84,2.07-6.08,2.88-8.67,1.25-4,1.65-7.62-1.18-11.13-3-3.74-7.47-4.42-9.74.24-1.94,4-.87,8.29.52,12.26.73,2.07,3.14,6.67.56,8.39-2.29,1.52-8,1-10.6.64-3.67-.5-4.49-6.31-4.52-9.29,0-4.11-.14-10.94-4-13.63-4-2.78-9.16.54-10.6,4.48-2.06,5.68-.41,7.62,3.69,11.87,2.84,2.94,6.71,7.07,2.83,10.36-2.69,2.29-6.61,2.83-9.64,4.4-4.72,2.44-11.27-6.65-13-10.21-1.58-3.36-3.69-7-7.28-7.92a7.36,7.36,0,0,0-7.7,3,7.93,7.93,0,0,0,.25,9.11c2,2.6,5.41,3.61,8.49,4.73a63.54,63.54,0,0,1,8.46,3.8c2.34,1.26,5.2,3.64,2.92,6.27-3.61,4.17-7.63,8.31-13.69,5.79-7.57-3.16-5.92-14-16.88-11.3-7.14,1.78-10.14,11-3.23,15.34,3,1.89,14.35.12,15.32,3.88.36,1.38-1.43,3.33-1.9,4.61-1.13,3.17-1.41,6.27.13,9.38,1.68,3.44,5,5.72,8.05,8,3.41,2.56,6.68,6.55,10.43,8.44,5.74,2.88,12.69-.35,17.67,4.55,3.41,3.36,4,8.91,2.82,13.37a4.53,4.53,0,0,1-.85,1.83c-5,5.54-22.12-10.22-26-12.93-10.41-7.3-20.38-15.35-31-22.37-8.05-5.35-18.43-9.13-22.91-18.34-2.93-6-2.51-13.13-.95-19.63,2.9-12,6.65-24.44,14.78-34,8.41-9.92,24.66-15.55,36.55-20.29,11.52-4.6,23.21-9.76,35.64-11.24s25.07,2.15,37.43,3.66c10.64,1.3,20.54,3.63,28.83,10.9C2600.76,450.19,2607.25,460.6,2607,472.15Z"/><path class="cls-6" d="M2570.2,733.47c-5,6.33-11.61,14.12-18.81,17.9-8.28,4.36-14.41,1.74-22.76.34-6.68-1.11-13.36-1-20-2.71-8.91-2.24-17.37-6.29-25.24-11-28.58-13.68-47.88-39.79-62.8-67.41-1.24-2-2.4-4.12-3.43-6.22-4.15-8.42-6.5-17.43-5.88-27.19a29.44,29.44,0,0,1,1.17-7.08,23.55,23.55,0,0,1,3-6.44c3.93-5.8,10.3-9.45,16.7-12.3a112.19,112.19,0,0,1,41.63-9.55c10.15-.34,20.33.72,30.47.11,5.15-.3,10.33-1,15.44-.34,2.23.31,4.95,1.56,4.75,3.8a4.14,4.14,0,0,1-2.11,2.85c-4.6,3-10.52,2.91-16,3.09-9.13.29-17.39,3.89-25.68,7.35-5.88,2.46-19.57,2.31-20.28,10.81-.26,3.21,5.39,8.41,1.63,10.47-2.2,1.22-5.61-.78-7.93-.29-6,1.24-12.59,6-9.66,12.77,3.14,7.25,9.76,4.44,14.9,1.12,2.17-1.38,5-5.18,7.62-5.48,3.61,0,11.35,10.37,8.49,12.78-5.32,4.5-13.9,11.13-9.89,19.06,2.57,5.09,6.62,7.68,11.32,3.51,3.56-3.13,4.14-14.22,10.19-12.12,3.14,1.08,13.94,7.85,10,12S2485,691.55,2484.43,698c-1.1,13.39,14.57,9.4,18.39.32,1.34-3.19,3.07-11.39,7.93-9.26,5.36,2.35,16.83,2.1,16.46,10.1-.29,5.78-6.71,12.5-3.23,18.26,2.42,4,8.19,5.23,12.28,2.64,5.41-3.43,4.16-9.06,2.9-13.86-.6-2.28-1.71-6-1.19-8.4.6-2.74,3.57-2.07,5.62-2.52a50.4,50.4,0,0,0,6.45-1.45,13.51,13.51,0,0,0,5-3.39,20.89,20.89,0,0,0,5-17.09c-1-5.74-5.36-9.52-7.14-14.9s.26-10.45,3.7-14.51a4.68,4.68,0,0,1,2.43-1.77,3.31,3.31,0,0,1,3.17,1.49,9.39,9.39,0,0,1,1.33,3.42c4.91,21,4.87,42.94,9.11,64.13a54.82,54.82,0,0,1,1.18,9.16C2573.91,725,2573.06,729.83,2570.2,733.47Z"/><path class="cls-6" d="M2710.33,631.54a81.82,81.82,0,0,1-2.41,9.51c-7.49,23.9-9.94,50.73-38.84,56.71a30.44,30.44,0,0,1-8.81.77c-6.14-.56-13.11.27-18.93-1.76-6.42-2.24-12.18-6.82-16.81-11.71a99.34,99.34,0,0,1-18.36-28.63c-2.39-5.63-3.32-11.95-7.26-16.84-2.74-3.39-6.7-5.77-8.83-9.57a6.46,6.46,0,0,1-1-3.59,3.4,3.4,0,0,1,2-3,4.59,4.59,0,0,1,2.3-.11c8.21,1.23,15.27,8.42,19,15.47,4.12,7.78,12.11,17.43,22.56,13.65,6.75-2.44,7.64-8.69,12,0,2.3,4.61,1.93,8.87,8.56,9,6.24.1,10.83-5.24,8.94-11.35-2.14-7-13.25-7.59-14.4-13.23a6.3,6.3,0,0,1,.61-3.47c.45-1.2.92-2.38,1.37-3.57,1.89-4.94,5.87-3.65,7.84.67.94,2.08,1.39,4.38,2.71,6.25,6,8.57,18.58-.49,15.18-9.38-3.24-8.46-19-2.59-20.16-9.47a7.93,7.93,0,0,1,.38-3.37c.81-3.09,1.61-6.18,2.42-9.26,2.11-8.09,9.66.81,13.33,2,9.87,3.23,14.74-13.62,4.61-16.66-4.85-1.45-13.84,3.88-16.85-2.35a13.38,13.38,0,0,1-1-5.41c0-1,0-6.31,1.65-7.11,4.49-2.13,10.19-.12,14.53-2.6,4.16-2.37,3.46-9.77.12-12.6a10.53,10.53,0,0,0-5.18-2.2c-3.44-.55-8.15.23-9.38,4-.39,1.21-.06,2.49-.63,3.67a4.61,4.61,0,0,1-3.05,2.34c-2.84.75-7,.11-9.06-2.17-.58-.64-1.19-1.25-1.74-1.9-1.4-1.65-2.47-3.66-4.33-4.76-6-3.57-14.15,6.51-18.32,9.79-5.44,4.28-15,15.83-22.64,12.42a4.23,4.23,0,0,1-2.69-4.19c.61-3.87,6.39-5.62,8.94-7.82,3.63-3.14,7-6.58,10.44-9.9,4.54-4.39,9.14-10,14.52-13.37,5.77-3.62,12.22-5.86,18.52-8.36,11.54-4.58,19.93-11.67,32.67-6.13,13.06,5.67,16,19.81,19.22,32.3C2709.67,586,2714.67,609.16,2710.33,631.54Z"/></g><path class="cls-7" d="M2883.74,425.81c-5-21-19.24-36.8-28.64-55.71A97.17,97.17,0,0,0,2817,329.74c-15-8.82-31.91-13.77-49.14-15.79,14.72,14.69,27.45,33.65,34,55.23-21.71-23.65-54.75-44.14-82.1-53.75-1.72.37-3.43.78-5.13,1.25-4.8,1.33-9.2,3.95-13.83,5.74-10.75,4.17-20.79-.59-31.48-2.36-7.4-1.22-15-2-22.46-2.91a181,181,0,0,1-21.57-3.7c-13-3.26-25.45-9.06-38.75-11-16-2.35-32.37,1-47.79,5.92-4.36,1.39-8.67,2.94-13,4.52-1.3.48-2.59,1-3.87,1.51a25.49,25.49,0,0,1-5.62,1.5c-.87.14-3.19.8-3.5-.52-.39-1.62-.05-3.3-.06-4.93,0-2.78-.07-5.56-.17-8.33-.22-5.43-.6-10.86-1.07-16.28-.1-1.29-.23-2.59-.37-3.89a175.26,175.26,0,0,0-6.31-32.51,126.42,126.42,0,0,0-5.77-15.53,83.21,83.21,0,0,0-4.51-9.07c-2.23-3.68-10.71-10.9-3.51-14.41,1.45-.71,2.92-1.39,4.39-2.06,10.7-4.84,21.1-8.24,32.93-8.82,11.47-.57,22.84,1.84,34.24,1.15.6,0,1.21-.15,1.81-.21,1.27-.14,2.08-.25,2.72,1,.48.94.67,2,1.1,3a44.88,44.88,0,0,0,2.1,4c1.5,2.55,3.2,5,4.87,7.41,3.95,5.79,8.33,11.28,14,15.5s12.28,6.25,19.31,7.25c8.94,1.27,15-4.68,23.52-1.43,16.55,6.33,34.37,20.57,51.9,24.05,15.67,3.12,33.48,5.53,49,.46,13.88-4.52,19.45-17.41,15.27-31.08-8.21-27-39.75-38.13-63.48-46.84-15-5.47-29.87-12.09-45.75-14,16.7,7.74,32.83,18.61,48.5,32.06-31-15-61.57-24.77-91.34-26.55a188.69,188.69,0,0,0-17.93,7.25,7.88,7.88,0,0,1-1.4.26,14.47,14.47,0,0,0-7.31,4.7,14.8,14.8,0,0,0-2.37,3.87c-.46,1.1-.34,2.26-.72,3.36-.26.74-.87.54-1.53.53-.92,0-1.83,0-2.75-.1q-2.84-.16-5.67-.5c-3.77-.42-7.53-1-11.29-1.6a109.41,109.41,0,0,0-20.12-1.89,89.87,89.87,0,0,0-22.93,3.86c-4,1.13-7.87,2.44-11.74,3.86-2,.74-4,1.51-6,2.3-1.62.64-3,2.37-4.89,1.81-1.31-.4-2.27-1.87-3.13-2.76-1.29-1.35-2.56-2.69-3.89-4-2.57-2.52-5.25-4.94-8-7.25-2.26-1.91-4.63-3.68-7-5.49a65,65,0,0,0-6.25-3.8,4.81,4.81,0,0,1-2.58-3.29c-.39-3.44,5.33-9.58,7.07-12.3q4.26-6.66,8.4-13.38c5.5-9,10.79-18.11,15.63-27.48,7.58-14.67,17.9-1.37,27.91,3.31a115,115,0,0,0,22.61,7.61c15.84,3.68,32.15,4.73,48.35,5.4,5.42.23,11,.4,16.09-1.48s9.61-6.33,9.89-11.74c12.81-2.72,25.59-6.63,36.55-13.79s20-18,22.93-30.73c4.54-20-7.36-41.3-24.8-52.16s-39.15-12.78-59.55-10.39c-4.12.48-8.76,1-12-1.61-2.65-2.13-3.51-5.72-5.21-8.67-4.89-8.5-16.78-10.85-26-7.54s-16.24,10.88-22.18,18.68a155.29,155.29,0,0,0-24.05,45.21c26.13-8.41,61.6-14.8,79.74-8.32-31.53,7.32-60.23,20.54-85.62,40.65-.2,2.26-.42,4.53-.7,6.81-1.08,8.7-8.16,14.86-13,21.61-6.35,8.8-12.61,17.66-19.07,26.37q-3.63,4.91-7.36,9.72c-1.34,1.72-3.38,5.8-5.36,6.85-3.77,2-8.6-1.87-11.78-3.39-3.61-1.74-7.24-3.39-10.95-4.89a321.19,321.19,0,0,0-74.4-20.09c-10.71-1.56-21.59-2.52-32-5.63-4.84-1.44-9.13-3.35-12.88-6.85-5.05-4.74-6.41-11.08-9.77-16.81a119.17,119.17,0,0,0-10.7-15.3,187.09,187.09,0,0,0-26.16-25.65c-6.07-5-12.36-9.68-18.74-14.25-2.71-1.94-5.44-3.85-8.16-5.77-1.83-1.29-4.66-4.3-6.8-4.86,26,6.72,49,20.82,68.89,37.8a64.12,64.12,0,0,0-6.86-12.54c-10.17-14.63-24.29-26-38.59-36.63-15-11.1-30.49-21.71-47.76-28.64-9.37-3.75-19.56-6.42-29.53-4.79s-19.59,8.39-22.11,18.17c-1.84,7.14.24,14.7,3,21.55A115.91,115.91,0,0,0,2162.37,72a8.89,8.89,0,0,1,2.25,3.8,10.72,10.72,0,0,1-.54,4.36c-1.52,6.66.41,13.78,4.12,19.51s9.07,10.21,14.76,14c20.64,13.69,47.76,18.72,70.84,9.72,4.29-1.67,8.43-3.81,12.93-4.76,11.07-2.33,18.3,6.48,25.65,13.28,3.14,2.91,13.18,9.64,9.27,14.71-1.46,1.91-4.15,3.15-6.3,4.13-1.61.73-3.14,1.41-4.31,1.87-15,5.81-28.76,10.88-42.11,15.52-3.32,1.16-7.56,2.43-12,3.78a124.64,124.64,0,0,0-24.15,10.63q-6.82,3.78-13.33,8.11c-2,1.37-4.09,2.78-6.08,4.24a33.83,33.83,0,0,0-2.8,2.08c-1.42,1.27-2.1,1.82-4.08,1.58-2.79-.33-6.09-.64-8.76.38a32.3,32.3,0,0,0-7.59,4.65c-4,3-8,5.93-12,9-7.28,5.61-14.39,11.44-21.4,17.39q-12.06,10.26-23.76,20.94-12.78,11.64-25.23,23.65-5.1,4.94-10.16,9.91l-5.17,5.11-2.58,2.58c-.61.61-2.18,1.67-2.45,2.46,5.44-15.63,19.6-42.23,41.49-65.56-4.87,4.31-9.69,8.7-14.8,12.78-23.45,18.73-49.87,20-75.12,35.33-6,3.67-13.21,8.36-16.7,14.71-1.86,3.38-2.67,7.7-1.53,11.24a144.31,144.31,0,0,0-26.72,37c-6.49,13.07-12.47,30.46-2.19,43.29,9.55,11.92,26.63,11.36,40.24,9.11,16.39-2.72,31.86-9.29,46.72-16.49,13-6.29,25.72-13.24,38.93-19.07l-1.18,2.3c-2.35,4.59-5.81,9.68-6,15-.22,9.14,8.08,13.16,16.15,12,8.94-1.22,17.73-6.84,25.39-11.35a176.15,176.15,0,0,0,24.36-17.34c31.64-26.8,52.28-66.69,51-108.67q-.06-1.95-.18-3.9a98.77,98.77,0,0,0-3.8-22.9c-.78-1.75-1.23-3.66-2-5.43a35.08,35.08,0,0,0-2.75-5.08,29.54,29.54,0,0,0-3.76-4.65,32.79,32.79,0,0,0-2.84-2.45,1.52,1.52,0,0,1-.68-1.23c.12-1.73,3.25-2.66,4.51-3.31,1.82-.93,3.7-1.72,5.5-2.67,3.68-2,7.42-3.8,11.2-5.57,11.63-5.45,23.57-9.27,35.74-13.33,15-5,32.07-9.42,46.81-15.12,1.49-.58,3.16-1.34,4.93-2.15a58.74,58.74,0,0,1,17.28-4.76c5.87-.74,11.93.87,17.75,1.82a265.54,265.54,0,0,1,37.21,8.39,258.86,258.86,0,0,1,53.07,23.77,106.78,106.78,0,0,1,20.44,15.85,129.4,129.4,0,0,1,13.53,16.46c1.83,2.53-4.46,1.89-5.5,1.76a81.67,81.67,0,0,0-22.19.67c-4.71.77-9.35,2.07-14,2.91s-9.57,1.65-14.31,2.61-11.73,3.78-16.45,3.07c-2.21-.33-4.44-1.63-6.67-2.93-33.11,14.05-67.12,37.16-90.19,67.24,10.81-30.21,34.38-53.83,57.06-72.65-4.95.28-9.89.85-14.77,1.61-18.22,2.82-35.76,9.07-52.71,16.15-30.62,12.78-59.22,33.29-72.31,64.83-3.46,8.35-6.08,17.68-6.13,26.77,0,6.06,2.6,12.52,7.58,15.41a108,108,0,0,0-5.11,35.54c.36,9.84,3.65,21.68,14.12,25.09,12.57,4.09,26.83-6.43,36.89-12.8,5.85-3.7,11.49-7.72,17-12,2.57-2,5.11-4,7.59-6.12s5.49-6.12,8.55-6.89c3.68-.92.83,3,.94,5.57a12.9,12.9,0,0,0,2.43,6.93,16.49,16.49,0,0,0,14.28,6.88c6.53-.23,12.43-3.9,17.82-7.2,5.57-3.42,11-7,16.34-10.79,20.89-14.95,40.29-33.63,50.62-57.57l.08-.18a99.82,99.82,0,0,0,6-19.25,91.09,91.09,0,0,0,1.91-20c-.09-5.52-.46-11.56-2.1-16.85a73.18,73.18,0,0,0-4.59-11.29c-1.47-2.86-4.08-6.34-.62-8.93,2-1.45,4.65-1.86,7-2.34,8.12-1.64,16.34-.81,24.52-1.49a257.15,257.15,0,0,1,36.08-.77c4.37.25,8.07-.23,11,3.58,2.29,3,3.23,6.85,4.44,10.28,7.08,20.12,3.46,41.45,4.27,62.26.58,15.15,1.52,23,5.71,42.06l35.59-4.92c-1.44,0-2.33-5.4-2.54-6.32-.47-2-.88-4.09-1.15-6.16-.21-1.59-.79-4.05-.19-5.56a8,8,0,0,1,3.2-3.12,37.54,37.54,0,0,1,4.73-1.82c2-.8,4-1.51,6-2.24,5.14-1.87,10.31-3.71,15.54-5.32,10.29-3.15,21-5.41,31.8-5.09,14.43.42,28.28,5.37,42.41,8.35a198.48,198.48,0,0,0,28.32,3.71c9.5.62,18.87,2.66,28.25,4.26,2.18.38,10.19,1,8,4.6-4.73,7.66-4.61,14.07-3.2,22.68,1,5.94,2.58,11.74,4.1,17.56,5,19.07,12.21,38,23.24,54.43,10.16,15.15,25.29,33.08,45.39,32.22,9.73-.42,15.66-6.14,23.45-10.95,10-6.18,21.46,2.41,30.53,7,16.82,8.44,37.25,22.15,56.92,15.37S2888,443.86,2883.74,425.81Z"/><path class="cls-7" d="M244,428.37v64H79.26V593.69H205.51v62.84H79.26v167H0V428.37Z"/><path class="cls-7" d="M419.23,519.52q24.61-14.14,56.33-14.15v83.22H454.61q-37.37,0-56.33,17.55t-19,61.14V823.54H300.05V509.9h79.26v48.68A111.51,111.51,0,0,1,419.23,519.52Z"/><path class="cls-7" d="M818.07,690.49H588.78q2.82,34,23.78,53.22T664.08,763q44.16,0,62.84-37.93H812.4q-13.57,45.3-52.08,74.45t-94.55,29.15q-45.3,0-81.24-20.09a141.34,141.34,0,0,1-56-56.9q-20.11-36.79-20.1-84.92,0-48.69,19.81-85.49t55.48-56.61q35.67-19.81,82.09-19.82,44.73,0,80.11,19.25a135.56,135.56,0,0,1,54.92,54.63q19.53,35.39,19.53,81.24A188,188,0,0,1,818.07,690.49Zm-79.83-53.21q-.57-30.57-22.08-49t-52.65-18.4q-29.44,0-49.54,17.83t-24.62,49.54Z"/><path class="cls-7" d="M929,814.76q-30.57-13.86-48.4-37.65a95.37,95.37,0,0,1-19.53-52.65h79.82q2.26,18.13,17.84,30t38.78,11.89q22.63,0,35.38-9.06t12.74-23.21q0-15.29-15.57-22.93t-49.54-16.7q-35.1-8.49-57.46-17.55a99.67,99.67,0,0,1-38.5-27.74q-16.14-18.69-16.13-50.39a81.22,81.22,0,0,1,15-47.55q15-21.51,43-34t66-12.46q56.05,0,89.45,28t36.8,75.57h-75.86q-1.71-18.67-15.57-29.72t-37.08-11q-21.52,0-33.12,7.93t-11.61,22.08q0,15.86,15.85,24.06t49.26,16.7q34,8.49,56,17.55a99.1,99.1,0,0,1,38.22,28q16.14,19,16.7,50.11,0,27.17-15,48.69t-43,33.68q-28,12.16-65.39,12.17Q959.58,828.63,929,814.76Z"/><path class="cls-7" d="M1426.66,520.94q27.73,15.57,43.31,45.85t15.57,72.75v184h-79.26V650.3q0-37.37-18.68-57.46t-51-20.1q-32.84,0-51.8,20.1t-19,57.46V823.54h-79.26V404.59h79.26V549q15.28-20.38,40.76-32t56.61-11.6Q1398.92,505.37,1426.66,520.94Z"/><path class="cls-8" d="M1576.68,734.09q54.35-45.29,86.62-75.58t53.79-63.13q21.5-32.82,21.51-64.54,0-28.86-13.59-45.29t-41.89-16.42q-28.32,0-43.6,19t-15.85,51.8h-77q2.25-67.93,40.48-103t97.09-35.1q64.55,0,99.07,34.26t34.54,90.29q0,44.16-23.78,84.36t-54.35,69.92q-30.57,29.71-79.82,71.61h167v65.68H1547.24V759Z"/><path class="cls-9" d="M2160.93,547.26q-13.59-24.9-37.36-37.93t-55.48-13q-35.12,0-62.28,15.85t-42.46,45.29q-15.28,29.44-15.28,67.94,0,39.63,15.56,69.07t43.31,45.29q27.74,15.86,64.54,15.85,45.29,0,74.17-24.06t37.93-67.09H2047.71V603.88h214V673q-7.93,41.32-34,76.42t-67.09,56.33q-41.05,21.24-92,21.23-57.18,0-103.32-25.75a187.47,187.47,0,0,1-72.46-71.62q-26.32-45.85-26.33-104.17t26.33-104.45a186.9,186.9,0,0,1,72.46-71.9q46.14-25.76,102.76-25.76,66.79,0,116.06,32.55t67.93,91.43Z"/><path class="cls-8" d="M3541.93,589.9v14.29h-10.14l-9.14,11.21-9.15-11.21h-85l-9.14,11.21-9.15-11.21h-85l-9.14,11.21L3307,604.19h-85l-9.15,11.21-9.14-11.21H3185.6V589.9h-46.94V734.37q0,29.83,12.42,50.46a79.07,79.07,0,0,0,33.68,31c1.23.6,2.48,1.17,3.72,1.72a100.59,100.59,0,0,0,21.91,6.59c17.22,3.17,34.6,2.65,52,2.57q50.7-.18,101.36-.16t101.36.16c17.41.08,34.79.6,52-2.57a100.59,100.59,0,0,0,21.91-6.59c1.25-.55,2.49-1.12,3.72-1.72a79.09,79.09,0,0,0,33.69-31q12.42-20.64,12.41-50.46V589.9Zm0,105.65v22.83L3522.65,742l-28.59-35,28.59-35.06ZM3471,608.6l28.59,35.06L3471,678.71l-28.59-35.05ZM3448,707l-28.59,35-28.59-35,28.59-35.06Zm-80.22-98.36,28.59,35-28.59,35.05-28.6-35.05Zm-23,98.36-28.59,35-28.6-35,28.6-35.05Zm-80.23-98.36,28.59,35-28.59,35.05-28.6-35.05Zm-78.86,100-1.37-1.68,1.37-1.68,27.22-33.37L3241.41,707l-28.59,35Zm4.17-65-4.17,5.11V638.54ZM3254,784c-2.3,0-4.61,0-6.92,0l-11.24-13.78,28.59-35,28.59,35L3281.88,784C3272.59,784,3263.31,784,3254,784Zm96.28,0-11.17-13.69,28.59-35,28.59,35L3385.15,784Zm123.19,0q-10,0-19.9,0l-11.18-13.71L3471,735.22l28.59,35.06L3488.39,784C3483.42,784.13,3478.43,784,3473.5,784Z"/><polygon class="cls-8" points="3185.6 705.29 3185.6 708.65 3184.23 706.97 3185.6 705.29"/><path class="cls-8" d="M3500.29,545.83H3453c0-36.38-8.34-65.64-24.12-84.64-14.93-18-36.84-27.19-65.1-27.31-28.24.12-50.16,9.32-65.1,27.31-15.77,19-24.11,48.26-24.11,84.64h-47.32c0-48.22,11.78-86.88,35-114.86.83-1,1.68-2,2.54-3s1.75-1.94,2.64-2.88,1.79-1.87,2.71-2.78,1.85-1.8,2.8-2.68,1.89-1.74,2.87-2.58,1.95-1.67,2.94-2.48,2-1.6,3-2.37,2-1.53,3.1-2.27,2.1-1.47,3.17-2.17,2.15-1.4,3.24-2.07,2.2-1.33,3.31-2,2.25-1.25,3.38-1.86,2.3-1.19,3.46-1.75,2.33-1.12,3.52-1.65,2.38-1.05,3.59-1.55,2.43-1,3.65-1.44,2.48-.91,3.72-1.34,2.52-.84,3.79-1.23,2.56-.76,3.85-1.12,2.6-.69,3.91-1,2.65-.63,4-.91,2.69-.55,4-.8,2.73-.48,4.09-.69,2.77-.41,4.16-.59,2.8-.33,4.21-.47,2.85-.26,4.27-.36,2.88-.19,4.33-.26,2.91-.11,4.38-.14c1.67,0,3.36,0,5,0q2.19,0,4.38.12c1.44.06,2.88.14,4.33.24s2.84.21,4.27.35,2.81.28,4.21.45,2.78.36,4.16.57,2.73.43,4.1.67,2.69.5,4,.78,2.66.58,4,.89,2.62.65,3.92,1,2.57.71,3.85,1.1,2.54.79,3.79,1.21,2.49.86,3.73,1.32,2.45.92,3.66,1.42,2.4,1,3.59,1.52,2.36,1.07,3.53,1.63,2.32,1.14,3.46,1.74,2.27,1.21,3.39,1.84,2.22,1.28,3.32,1.94,2.18,1.35,3.25,2.05,2.13,1.41,3.17,2.15,2.08,1.48,3.11,2.25,2,1.55,3,2.35,2,1.62,3,2.45,1.93,1.69,2.88,2.56,1.88,1.75,2.8,2.65,1.83,1.82,2.72,2.76,1.78,1.89,2.65,2.85,1.72,2,2.56,3l.48.57C3488.51,459,3500.29,497.61,3500.29,545.83Z"/><path class="cls-8" d="M3091.35,589.12v233.2h-46.77V723.09h-99.9v99.23h-46.77V589.12h46.77V685h99.9V589.12Z"/><path class="cls-8" d="M3703.57,653.46q14.92-7.86,34.09-7.86a76.11,76.11,0,0,1,40.37,11q18.07,11,28.6,31.26t10.52,47q0,26.71-10.52,47.29T3778,814a74.51,74.51,0,0,1-40.37,11.31q-19.48,0-34.09-7.69a66.18,66.18,0,0,1-23.41-20V822.5h-44V590h44v83.89A63,63,0,0,1,3703.57,653.46Zm62.21,54.2a44.6,44.6,0,0,0-17-17.44,45.4,45.4,0,0,0-22.77-6,43.88,43.88,0,0,0-22.47,6.13,45.4,45.4,0,0,0-17,17.75q-6.43,11.63-6.44,27.33t6.44,27.34a45.4,45.4,0,0,0,17,17.75,44.3,44.3,0,0,0,45.24-.16,46.55,46.55,0,0,0,17-17.91q6.43-11.61,6.44-27.65Q3772.22,719.13,3765.78,707.66Z"/></g></g></g></svg>