<svg xmlns="http://www.w3.org/2000/svg" viewBox="0 0 646.62 719.5"><defs><style>.cls-1{fill:none;}.cls-1,.cls-2{stroke:#000;stroke-miterlimit:10;stroke-width:25px;}.cls-2,.cls-3{fill:#fff;}</style></defs><g id="Layer_2" data-name="Layer 2"><g id="Layer_6" data-name="Layer 6"><circle class="cls-1" cx="292.5" cy="427" r="280"/><path class="cls-2" d="M413.5,270.64,530.23,31.94a34.65,34.65,0,0,1,52.83-11.8l38.11,30.61a34.65,34.65,0,0,1,3.9,50.37L451,292"/><circle cx="292.5" cy="427" r="223.5"/><path class="cls-3" d="M159,400.53,124,340.79l1.8-4.66,80.91-64.29,31,78.14Zm-16.72-58.29L164,379.47,219.25,344l-19-47.86Z"/><path class="cls-3" d="M140.18,531.54l-15.65-26.75,1.8-7.77,35.48-28.19,15.44,38.92Zm1.33-27.42,3.72,6.36,13.52-8.68-3.43-8.65Z"/><path class="cls-3" d="M411.18,427.54,393,395.5l39.81-30.67,15.44,38.92Zm1.33-27.42,3.72,6.36,13.52-8.68-3.43-8.65Z"/><path class="cls-3" d="M325.69,607.75,201.77,595.47l36.74-90.36,65.15,16.73ZM223.23,582.53l82.61,8.18-14.5-56.55-43.87-11.27Z"/><path class="cls-3" d="M335.39,462.26l-87-11.11,25-79.25,47.12,15.6Zm-67.27-23.72,48.49,6.2L307.52,399l-24.39-8.08Z"/><path class="cls-3" d="M410.73,563.66,359,530.87,388.26,465l91.29,25.08ZM378,525.13l30.29,19.21,43.37-46.4-54.9-15.08Z"/><path class="cls-3" d="M270.3,268.4l57.18-22.87,47.15,33-10.49,5.83c-.14.08-14.08,7.83-27.89,15.4-8.13,4.46-14.63,8-19.32,10.5-.68.36-16.93,9.29-16.93,9.29C291,306.5,270.3,268.4,270.3,268.4Zm22.4,7.2,14.55,22.77c8.42-4.45,24.93-13.51,39.11-21.35l-20.84-14.55Z"/></g></g></svg>