<svg xmlns="http://www.w3.org/2000/svg" viewBox="0 0 529.26 446.32"><g id="Layer_2" data-name="Layer 2"><g id="Layer_8" data-name="Layer 8"><path d="M106,384l.26,0,3.32.49q3.6.56,7.23,1,7.39.85,14.82,1.31c36.29,2.31,73.06-.44,109.2-3.8q8.46-.8,16.91-1.68c-54.46-1-108.93-1.91-163.39-2.11l2.07,3C99.57,382.83,102.76,383.44,106,384Z"/><path d="M434,371.32c-33.72,2.86-67.3,7.08-100.88,11.3q49.77.83,99.52,1.22,1.43-2.13,2.86-4.25,3-4.44,6-8.9Z"/><path d="M84.26,118.85l.31-.26Z"/><path d="M510,165.24a122.76,122.76,0,0,0-10.68-6.42c-2.44-1.32-9.14-3-10.62-5.1,1.55,2.21,3.05,4.52,4.41,6.9q-1.36-2.28-2.91-4.43c-6.61-9.16-15.26-16.62-23.53-24.3-5.86-5.45-11.62-11.08-16.34-17.56s-8.16-13-14.61-18.07c-7.62-6-16.5-10.24-25.42-13.93-8.33-3.43-17.16-5-25.83-7.32-9.41-2.52-18.71-5.38-28.05-8.14-19.11-5.63-38.36-10.13-58.27-11.73-44.36-3.59-88.9.24-132.81,6.65-10,1.47-19.26,3.09-28.12,8.28-7,4.09-13.26,9.11-20.6,12.61l-.41.21a4.53,4.53,0,0,1,.63-.23,6.5,6.5,0,0,1-.77.31l.11-.07L116,83c-.79.32-1.58.62-2.38.93q-2.52.93-5.07,1.77C105,86.89,101.34,88,97.73,89.25,90.06,91.84,82.16,94.67,75.3,99a43.12,43.12,0,0,0-16.18,18.31c-2.11,4.37-4,8.87-6.48,13.05a55.71,55.71,0,0,1-7,9.54c-5.28,6.21-10.76,12.42-15.18,19.12-2,2.88-9.3,5.48-12.26,7.73C8.63,174.05-.21,183.48,0,196.24c.15,8.6,4.19,16.63,8.67,24,10.63,17.41,19.19,36,28.63,54.09L71.56,340c5.73,11,11.67,21.94,17.38,32.93,5.37,10.33,8.59,20.27,17.88,27.86q2.22,1.8,4.59,3.39c3.2,5.1,6.38,9.85,12.59,13.72,7.27,4.52,16,7.42,24.58,10.23,14.61,4.82,30.2,8,45.57,11.05l.18,0a369.31,369.31,0,0,0,111.1,5,370.77,370.77,0,0,0,54.12-9.88c19.7-5.15,44.47-9.47,55.55-24.44q1.69-2.3,3.32-4.62A50.1,50.1,0,0,0,433.47,389c8.21-14.55,15.2-29.87,22.92-44.69,10.11-19.38,19.87-39,30.33-58.19,7.46-14.3,15.51-28.28,23.16-42.46,6.37-11.83,14.48-23.1,18-36.26a41.08,41.08,0,0,0,1.37-8.48C530,184.9,522.52,173.67,510,165.24ZM31.63,188.76l.33-.67,0,.92A1.42,1.42,0,0,0,31.63,188.76Zm11.17-5.32c-.36,1.24,0-1.34,0,0Zm1.89-6.71c-.66,1.14.41-1.39,0,0Zm0,20.59a2.43,2.43,0,0,1-.11-.28s.09.16.17.31v0C44.82,197.66,44.83,197.71,44.67,197.32Zm421.8,5.92-.34.21c-3.29,1.84-7.27,2.35-10.88,3.23q-5.06,1.24-10.12,2.4-11,2.53-22,4.77t-22,4.15q-11,1.91-22.05,3.52T357,224.41q-11,1.29-22.07,2.28t-22.1,1.64q-11,.67-22.1,1t-22.13.4q-11.06,0-22.13-.23t-22.15-.86q-11.1-.6-22.17-1.49t-22.18-2.12q-11.12-1.22-22.19-2.75t-22.21-3.37q-11.15-1.86-22.23-4t-22.24-4.64Q79.9,207.79,68.81,205l-3.34-.85c-6.64-4.62-12.4-10.49-15.3-18.2a85.61,85.61,0,0,1-2.87-9.91c-.24-1-.47-1.89-.7-2.84.34-.6.68-1.19,1-1.77.57-.9,1.16-1.78,1.77-2.66.08-.11,1.06-1.46,1.18-1.65l0,0c3.6-4.68,7.61-9,11.42-13.53,2.14-2.54,3.17-6.77,7.27-6.44,7.07.57,15.46,6.3,22,9,8.27,3.37,16.63,6.53,25.12,9.3,16.55,5.4,33.69,9.29,51.13,10,4.51.19,9.71-.14,12.48-3.71,1-1.3,1.47-3.38.25-4.48-1.06-.95-2.7-.61-4.08-.27-17.27,4.34-35.86,1.57-52.16-5.61S94.75,143,82.07,131c-1.26-1.21-2.58-2.51-3-4.21-1.5-6.47,9.13-10.58,13.46-12.64.71-.34,1.42-.66,2.14-1l0,0-.54.18c.18-.08.78-.31.91-.35l-.3.14.42-.15c1.81-.68,3.61-1.38,5.45-2,3.33-1.18,6.7-2.25,10.07-3.35,7.65-2.51,15.32-5.18,22.33-9.24,6.29-3.64,12-8.12,18.44-11.56l.62-.34c-1.71.57,1.16-.69,0,0l.51-.18c1-.36,2-.71,3-1A52.49,52.49,0,0,1,161.38,84c5.53-.93,11.1-1.68,16.65-2.45,9.46-1.31,19.47-2.48,29.2-3.43,3.51-.34,9.69-2,13-.5a10.74,10.74,0,0,1,2.95,2.4c16.43,16.41,49.26,22.4,71.32,17.8a2.61,2.61,0,0,0,1.33-.56,2.16,2.16,0,0,0,.44-1.85c-.41-3-3.18-5.16-6.09-5.92s-6-.4-9-.21a79.43,79.43,0,0,1-17.76-.85c-4.19-.67-10.85-2.11-13.42-5.94-4.54-6.78,6.48-6.08,9.84-5.84a69.65,69.65,0,0,0,10.81.21,50.38,50.38,0,0,0,8-1.32c16.85.54,32.82,2,49.17,5.88,17.6,4.13,34.72,10,52.18,14.67,4.65,1.24,9.31,2.31,14,3.42,1.55.37,3.08.79,4.6,1.3q1.5.5,3,1c.63.24,1.28.49,1.91.75l.06,0,.58.26c3.56,1.59,7.06,3.32,10.47,5.21,1.6.88,3.18,1.78,4.72,2.75.73.45,1.45.91,2.15,1.4,0,0,1.61,1.27,1.68,1.33A65.56,65.56,0,0,1,434,125.82c.3.42-42.14,17.5-45.84,18.71a396.59,396.59,0,0,1-51.81,13.12c-1.82.33-4.21,1.77-3.27,3.36a2.91,2.91,0,0,0,2.12,1.05c19.31,3.34,39,1.5,57.9-3.32a252.17,252.17,0,0,0,27.8-9c5.4-2,10.73-6.16,16.68-7.26,7.43-1.38,11.64,2.87,16.85,7.34a181,181,0,0,1,15.68,15.29c3.58,3.92,7.16,8.37,7.54,13.67s-2,10.36-4.42,14.78c-1.09,2-2.29,3.9-3.47,5.83A10.53,10.53,0,0,1,466.47,203.24Zm26.25-12.94c.18,0,0,0,0,0Z"/><path d="M471.34,150,424.88,18c-1.34-2.14-.32-4.63,2.44-6L450.53.88c4.29-2.06,10.2-.3,11,3.27l31.66,156.49Z"/></g></g></svg>