<svg xmlns="http://www.w3.org/2000/svg" viewBox="0 0 953.38 549.92"><defs><style>.cls-1{fill:#fff;}</style></defs><g id="Layer_2" data-name="Layer 2"><g id="Layer_16" data-name="Layer 16"><path class="cls-1" d="M687.28,246.71A251.33,251.33,0,0,1,806.67,116.77c10.27-5.15,26.06-7.72,30.37,2.93,1.53,3.79.83,8.07.1,12.1L821.42,219l18.83-7.53L842,227.56c12.3-11.63,30.63-14.61,47.47-13,19.64,1.9,40.35,10.89,48.63,28.79,10.36,22.42-2.61,48.87-19.23,67.14C886.73,345.83,841.71,366.09,798,385.4c-13.77,6.08-28.14,12.29-43.18,11.71-19.36-.74-36.83-12.91-48.62-28.27s-18.8-33.77-25.66-51.88a69.92,69.92,0,0,0,3.14-45.3"/><path d="M698.12,249.7c13.62-33.72,35.53-63.93,62.57-88.15a235.16,235.16,0,0,1,44.83-31.5c6.67-3.62,12.46-6.7,19.16-6.48.37,0,2.17.33.44,0a19.38,19.38,0,0,1,2.11.58c-1.74-.57.4-.23-.21.06-1,.5.12-1.59-.46-.35-.17.35.11,2.5,0,3.23-.32,3.16-1.14,6.35-1.7,9.48q-7.17,39.7-14.33,79.42c-1.34,7.43,5.08,17.34,13.84,13.84l18.83-7.54L829,211.43l1.75,16.13c1,9.62,11.55,14.92,19.21,7.95,9.78-8.91,23.7-10.72,36.44-9.93,10.93.68,23.6,4.2,32.35,11.19,23,18.4,7.32,49.43-9,67-20.55,22.17-46.51,38-73.34,51.5-14,7-28.27,13.4-42.57,19.73-13.21,5.84-28,12.8-42.83,10.52-34.2-5.28-49-43.43-59.63-71.56v6a81.75,81.75,0,0,0,3.13-51.28c-3.59-14-25.3-8.08-21.69,6a58.57,58.57,0,0,1,.67,27.48c-1.17,5.2-4.74,11-4,16.33.67,4.91,3.44,10.06,5.28,14.67,7.56,18.91,16.44,37.78,31.1,52.32,13.28,13.18,30.86,22.53,49.85,22.93,21.06.45,40.69-10,59.41-18.35,35-15.67,70-32.84,98.73-58.72,25.9-23.32,54.44-65.22,30.46-99.63-11.26-16.16-30-24.92-49.07-27.63-21.69-3.07-44.57.37-61.23,15.55l19.2,8-1.75-16.13c-.7-6.43-6.76-13.85-14.25-10.85l-18.83,7.53L832.26,222q7.17-39.7,14.33-79.42c2.38-13.16,5.61-27.91-7-36.93-7.93-5.66-18.69-5.28-27.71-2.81-9.83,2.7-19.05,8.34-27.7,13.59a269,269,0,0,0-27,18.85,258.29,258.29,0,0,0-44.31,44.84,265.47,265.47,0,0,0-36.43,63.65c-2.28,5.64,2.48,12.36,7.86,13.84,6.42,1.77,11.55-2.2,13.83-7.86Z"/><path class="cls-1" d="M268.76,211.22a13,13,0,0,1-9.21,12.35,451.72,451.72,0,0,0-69-48.46c-15.4-8.79-31.93-16.83-49.65-17.58s-36.88,7.51-44.1,23.71c-9,20.14,2.81,43,14.25,61.84-20.29,2.31-40.9,5.16-59.36,13.89S17,281.33,12.41,301.22c-5.78,24.94,8.3,51.39,29.06,66.39s46.9,20.41,72.42,22.57,51.32,1.43,76.54,5.87a189.5,189.5,0,0,1,54,18.21c10.78,5.55,21.2,12.21,33,15.12s25.64,1.23,33.7-7.83c15.05-16.9.81-42.65-10.31-62.36-8.62-15.27-15.33-33.24-10.54-50.1,2.1-7.41,6.37-14.41,6.19-22.1s-8.23-15.77-14.95-12"/><path d="M257.51,211.22a2.34,2.34,0,0,1-.95,1.5l10.94,2.89a481.38,481.38,0,0,0-47.77-35.84c-16.34-10.7-33.39-21.15-51.77-27.94-16.58-6.12-35.43-8-52.17-1.38-16.28,6.39-29.67,19.45-32.56,37.26-3.57,22,7.09,42.76,18.14,61l9.71-16.93c-24.8,2.84-50.47,6.3-72.32,19.31C20,262.29,4.1,280.56.75,302.64c-3.45,22.71,5.35,44.89,20.4,61.75,15.39,17.24,37.67,27.2,59.86,32.23,25,5.65,50.63,5.69,76.05,7.15,24.75,1.41,49.23,5.4,72,15.56,21.89,9.74,42,25.81,67.39,21.84,11.23-1.76,21.52-8.14,27.33-18s5.95-21.6,3.38-32.5c-2.88-12.19-9.1-23.6-15.18-34.46S300,333.73,299.92,321c0-13.52,10.36-25,7.17-38.94-3.29-14.33-17.56-23.09-31.26-16.83-5.52,2.53-6.88,10.53-4,15.4,3.31,5.67,9.84,6.57,15.39,4-2.08.95-2,0-3.21.38-.84.31-.16-1.47,0,0,0,.55,1.13,1.2,1.33,2.33.34,2-1.89,7.72-3.08,10.85-4.21,11.08-5.62,21.71-3.75,33.47,3.27,20.53,16.52,36.45,24,55.3,2.88,7.26,5.41,15.54,3.06,22.4-2.09,6.08-8.58,9.42-14.92,9.92-8.87.7-17.22-2.65-25.11-6.65-9.44-4.79-18.54-10.07-28.29-14.24-21.09-9-43-14-65.76-16.16-22.47-2.08-45.13-1.62-67.54-4.41-33.94-4.21-75.66-20.38-81.17-59-2.62-18.39,8-35.26,23-45.47,19.16-13.09,42.85-16.5,65.41-19.08,8.08-.92,14.53-9,9.72-16.93-8-13.32-19-30.57-15.25-46.9,2.93-12.92,15.68-20,27.64-21.48,17.21-2.1,34,5.93,48.61,14.06A442.26,442.26,0,0,1,230.92,215q6.21,4.64,12.21,9.51c4.67,3.79,10,10.34,16.42,10.34,12,0,20-13,20.46-23.6.29-6.08-5.38-11.25-11.25-11.25-6.33,0-11,5.15-11.25,11.25Z"/><path d="M196.88,268.23"/><path d="M196.88,274.23c7.72,0,7.73-12,0-12s-7.74,12,0,12Z"/><path d="M220,222"/><path d="M220,228c7.72,0,7.73-12,0-12s-7.74,12,0,12Z"/><path d="M225.52,288.88c-.83-.82-2.51.32-2.07,1.39a1.34,1.34,0,0,0,2.45-.48"/><path d="M229.77,284.64a7.5,7.5,0,0,0-3-1.77,8.29,8.29,0,0,0-2-.27,8.38,8.38,0,0,0-1.8.24l-.3.09a8.11,8.11,0,0,0-1.8.82,7.6,7.6,0,0,0-3.24,4.24,8.23,8.23,0,0,0-.26,1.78,1.5,1.5,0,0,0,0,.3,7,7,0,0,0,1,3.36,7.16,7.16,0,0,0,4.13,3.19,7.9,7.9,0,0,0,4,0,7.51,7.51,0,0,0,3.37-1.93,7.25,7.25,0,0,0,2.05-4.93,6,6,0,0,0-10.24-4.24,6.53,6.53,0,0,0-1.76,4.24v.1l.21-1.6a1.18,1.18,0,0,1-.06.27l.6-1.44a1.26,1.26,0,0,1-.13.23l.94-1.21-.19.19,1.21-.94a1.23,1.23,0,0,1-.31.19l1.44-.6a1.83,1.83,0,0,1-.46.12l1.6-.21a1.85,1.85,0,0,1-.47,0l1.6.21-.26-.07,1.43.61a1.49,1.49,0,0,1-.3-.18l1.21.94a.74.74,0,0,1-.12-.13l.93,1.22c-.05-.08-.1-.16-.14-.24l.61,1.43a.76.76,0,0,1-.06-.2l.21,1.59a1.5,1.5,0,0,1,0-.3l-.22,1.6a1.61,1.61,0,0,1,.09-.29l-.61,1.44a2.4,2.4,0,0,1,.16-.27l-.94,1.22a2.13,2.13,0,0,1,.3-.3l-1.22.94a2.71,2.71,0,0,1,.37-.21l-1.44.6a2.62,2.62,0,0,1,.4-.11l-1.59.22h.3l-1.6-.21a1.57,1.57,0,0,1,.29.08l-1.44-.6.18.11-1.22-.94.08.07a6.36,6.36,0,0,0,4.24,1.76,6.14,6.14,0,0,0,4.25-1.76,6,6,0,0,0,0-8.48Z"/><path d="M252.32,329.84h-1.54"/><path d="M252.32,323.84h-1.54a4.46,4.46,0,0,0-2.31.52,5.39,5.39,0,0,0-3.17,3.17,4.46,4.46,0,0,0-.52,2.31l.21,1.59a6,6,0,0,0,1.55,2.65,6.2,6.2,0,0,0,4.24,1.76h1.54a6.18,6.18,0,0,0,6-6l-.22-1.6a5.85,5.85,0,0,0-1.54-2.64,6.22,6.22,0,0,0-4.24-1.76Z"/><path d="M244.87,161.52c-.78-.44.6-1.75,1-1"/><path d="M247.9,156.34l-.06,0,1.21.94-.09-.09.94,1.22-.06-.1.61,1.43a.24.24,0,0,1,0-.08l.21,1.59v-.14l-.21,1.6a.83.83,0,0,1,0-.15l-.61,1.44a1.71,1.71,0,0,1,.13-.23l-.93,1.22a.86.86,0,0,1,.19-.19l-1.22.93a1,1,0,0,1,.23-.13l-1.44.6.18,0-1.59.21h.14l-1.6-.21a.23.23,0,0,1,.11,0l-1.43-.61.07.05-1.22-.94a.2.2,0,0,1,.09.09l-.94-1.22.06.09a4.53,4.53,0,0,0,1.54,1.68,5.33,5.33,0,0,0,4.44,1.18,4.38,4.38,0,0,0,2.23-.71l1.21-.94a6,6,0,0,0,1.55-2.64l.21-1.6a6,6,0,0,0-.82-3,.41.41,0,0,1-.05-.09l-.94-1.21,0,0a6,6,0,0,0-1.32-1,7.7,7.7,0,0,0-1.54-.64c-.16,0-1.49-.22-1.65-.22h-.11l-1.6.22-.09,0a8.76,8.76,0,0,0-1.55.65l-.15.09c-.37.25-.92.68-1.26,1l-.08.07a6.41,6.41,0,0,0-1.13,1.46.25.25,0,0,1,0,.07l-.31.75a6.81,6.81,0,0,0-.31.74l0,.08v0l-.22,1.59a4.53,4.53,0,0,0,.11.94,5.13,5.13,0,0,0,.12.85c0,.18.53,1.33.62,1.49a5.87,5.87,0,0,0,1,1.31l.07.07,1.21.93.06,0a4.38,4.38,0,0,0,2.23.71,6.15,6.15,0,0,0,6-2.86l.61-1.43a6.16,6.16,0,0,0,0-3.19l-.61-1.44a6,6,0,0,0-2.15-2.15Z"/><path d="M242.93,185.24l-1.64-1.43"/><path d="M247.17,181l-1.64-1.43a4.38,4.38,0,0,0-1.93-1.24,6.17,6.17,0,0,0-6.55,1.24,6,6,0,0,0-1.76,4.24l.22,1.6a5.93,5.93,0,0,0,1.54,2.65l1.64,1.42a5.78,5.78,0,0,0,6.55,1.24,4.38,4.38,0,0,0,1.93-1.24,6,6,0,0,0,1.76-4.24l-.21-1.6a6,6,0,0,0-1.55-2.64Z"/><path d="M275.41,303.63a2.4,2.4,0,0,1-3-1.54"/><path d="M273.82,297.85l-.46.1,1.6-.22a3.21,3.21,0,0,1-.62,0l1.6.21a3.18,3.18,0,0,1-.6-.18l1.44.61a4.8,4.8,0,0,1-.54-.32l1.22.93a3.57,3.57,0,0,1-.44-.43l.94,1.21a3.26,3.26,0,0,1-.24-.4l.61,1.44a2.12,2.12,0,0,1-.11-.29,6.31,6.31,0,0,0-2.76-3.59,6,6,0,0,0-8.21,2.15,6.09,6.09,0,0,0-.6,4.63,8.56,8.56,0,0,0,3.93,5,8.4,8.4,0,0,0,6.43.77,6.3,6.3,0,0,0,3.58-2.76,6.12,6.12,0,0,0,.61-4.62,6,6,0,0,0-7.38-4.19Z"/><path d="M249.24,246.67H247.7"/><path d="M249.24,240.67H247.7a5.8,5.8,0,0,0-5.48,3.69,4.51,4.51,0,0,0-.52,2.31l.21,1.6a6,6,0,0,0,1.55,2.65,6.24,6.24,0,0,0,4.24,1.75h1.54a4.56,4.56,0,0,0,2.31-.51,4.62,4.62,0,0,0,1.93-1.24,6.76,6.76,0,0,0,1.76-4.25l-.22-1.59a5.88,5.88,0,0,0-1.54-2.65,6.22,6.22,0,0,0-4.24-1.76Z"/><path d="M288.77,372.89c-.26,1.76-3.66,0-2.35-1.24"/><path d="M283,371.29l-.06.23.6-1.43a1,1,0,0,1-.1.18l.94-1.21a.86.86,0,0,1-.13.14l1.21-.94-.16.1,1.44-.6-.25.07,1.6-.21a2,2,0,0,1-.42,0l1.59.22a3,3,0,0,1-.51-.16l1.44.61a2.43,2.43,0,0,1-.47-.28l1.21.94a3.14,3.14,0,0,1-.32-.31l.94,1.21a1.41,1.41,0,0,1-.18-.29L292,371a1.21,1.21,0,0,1-.05-.18l.21,1.59a1,1,0,0,1,0-.25l-.21,1.6a1.05,1.05,0,0,1,.05-.19l-.6,1.43a.94.94,0,0,1,.12-.18l-.94,1.21.11-.12a6,6,0,0,0,0-8.48,6,6,0,0,0-4.24-1.76,6.27,6.27,0,0,0-4.25,1.76,7.69,7.69,0,0,0-1.13,1.46,10.44,10.44,0,0,0-.64,1.49c0,.05,0,.1,0,.16a8.46,8.46,0,0,0-.23,1.81,12,12,0,0,0,.23,1.69.88.88,0,0,0,0,.15,7.5,7.5,0,0,0,.72,1.64,8.33,8.33,0,0,0,1,1.3.81.81,0,0,0,.12.14,11.67,11.67,0,0,0,1.41,1.11,2.3,2.3,0,0,0,.33.21,8,8,0,0,0,2,.81,9.05,9.05,0,0,0,1.88.25H288a11.83,11.83,0,0,0,1.69-.22,6.82,6.82,0,0,0,3.07-1.76,6.37,6.37,0,0,0,1.09-1.43,9.53,9.53,0,0,0,.64-1.5l.06-.23a4.52,4.52,0,0,0,.1-2.39,4.38,4.38,0,0,0-.71-2.23,6,6,0,0,0-8.21-2.16,5.9,5.9,0,0,0-2.75,3.59Z"/><path d="M193.73,297.46a4,4,0,0,0-1.24-4.15L190.57,299"/><path d="M199.52,299.06a10.2,10.2,0,0,0-2.78-10,6.08,6.08,0,0,0-10,2.64l-1.92,5.68a6,6,0,0,0,4.19,7.38,6.14,6.14,0,0,0,7.38-4.19l1.92-5.68-10,2.65c.73.67-.49-1-.19-.36.22.45.37,1.06-.13-.39.27.77,0-.44,0-.63.11,1.11.33-1.38.06-.3-.78,3,1,6.65,4.19,7.38a6.11,6.11,0,0,0,7.38-4.19Z"/><path d="M441.66,155.89c-2-2.23-6.4-1.33-7.38,1.54"/><path d="M445.9,151.65a10.58,10.58,0,0,0-17.4,4.18c-1.15,2.93,1.26,6.71,4.19,7.38,3.45.79,6.15-1.05,7.38-4.19l-.34.83c.26-.4.23-.37-.09.08-.67,1,.54-.34-.37.4s.12.08.23,0c-.23.28-1.35.47-.33.25.74-.17-1.34.3-.61.1a4.18,4.18,0,0,1,.5,0l-.95-.11c.77.18-.34-.17-.52-.27,1,.56-1-1-.18-.14a6,6,0,0,0,8.49-8.49Z"/><path d="M443.29,282.2l-4.44-.33,2.94-4.36"/><path d="M443.29,276.2l-4.44-.33,5.18,9,2.94-4.36a6,6,0,0,0-2.15-8.21,6.14,6.14,0,0,0-8.21,2.16l-2.94,4.35a6,6,0,0,0,0,6.06,6.19,6.19,0,0,0,5.18,3l4.44.33c3.14.23,6.14-2.93,6-6a6.15,6.15,0,0,0-6-6Z"/><path d="M427.74,212.15a1,1,0,1,1,.73-.86"/><path d="M426.14,206.37h-.07l1.6-.22h-.22l1.59.22-.2-.07,1.43.61-.18-.12,1.21.94a1.39,1.39,0,0,1-.21-.21l.94,1.21a1.1,1.1,0,0,1-.15-.26l.61,1.44a1.57,1.57,0,0,1-.08-.29l.21,1.6V211l-.21,1.6a1.29,1.29,0,0,1,0-.21l-.6,1.43a1.08,1.08,0,0,1,.11-.18l-.93,1.21a.47.47,0,0,1,.1-.1l-1.22.94.18-.11-1.44.61.2-.06-1.6.22a1.22,1.22,0,0,1,.27,0l-1.59-.21a1,1,0,0,1,.34.09l-1.44-.61a2,2,0,0,1,.25.14l-1.22-.94a1.89,1.89,0,0,1,.2.2l-.94-1.22a1.62,1.62,0,0,1,.1.18l-.61-1.44a1.52,1.52,0,0,1,.06.2l-.22-1.59a.61.61,0,0,1,0,.14,4.6,4.6,0,0,0,.51,2.31,4.68,4.68,0,0,0,1.24,1.93,6.76,6.76,0,0,0,4.25,1.76,6.05,6.05,0,0,0,4.24-1.76,6.27,6.27,0,0,0,1.76-4.24,6.91,6.91,0,0,0-.25-1.87q-.15-.4-.33-.78t-.33-.78a7.51,7.51,0,0,0-.54-.72,4.79,4.79,0,0,0-1.27-1.27,5.94,5.94,0,0,0-2.28-1.21,2.19,2.19,0,0,0-.34-.1,11,11,0,0,0-1.7-.22l-.17,0a10.57,10.57,0,0,0-1.69.23l-.1,0-1.43.6-.17.11a8.53,8.53,0,0,0-1.3,1,5.05,5.05,0,0,0-.49.63l-.51.67a8,8,0,0,0-.38.84,7,7,0,0,0-.34.86c-.05.29-.09.57-.12.87a7.53,7.53,0,0,0-.11.83,6.94,6.94,0,0,0,.25,1.92,6.23,6.23,0,0,0,.35.85,3.87,3.87,0,0,0,.92,1.59c.14.18.36.51.56.72s.57.45.72.57a8.19,8.19,0,0,0,.73.55,5.37,5.37,0,0,0,.78.33l.78.33a5.75,5.75,0,0,0,.94.14,5.9,5.9,0,0,0,2.68-.11,6.81,6.81,0,0,0,3.59-2.76,4.38,4.38,0,0,0,.71-2.23,4.52,4.52,0,0,0-.1-2.39,6,6,0,0,0-2.76-3.59l-1.44-.6a6,6,0,0,0-3.19,0Z"/><path d="M450.94,349.74a2.52,2.52,0,0,0,.19,4.39"/><path d="M447.91,344.56a8.37,8.37,0,0,0-4.16,7.43,9.17,9.17,0,0,0,1.16,4.24,7.58,7.58,0,0,0,3.19,3.08,6.56,6.56,0,0,0,4.62.6,6,6,0,0,0,4.19-7.38,5.79,5.79,0,0,0-2.75-3.58,2.82,2.82,0,0,1-.48-.27l1.22.94a2.65,2.65,0,0,1-.38-.37l.94,1.22a3.13,3.13,0,0,1-.34-.62l.6,1.43a4.2,4.2,0,0,1-.17-.7l.22,1.59a3.56,3.56,0,0,1,0-.73l-.21,1.6a3.37,3.37,0,0,1,.19-.69l-.6,1.43a3,3,0,0,1,.27-.45l-.94,1.21a3.32,3.32,0,0,1,.38-.37l-1.22.94a2,2,0,0,1,.31-.19,6.07,6.07,0,0,0,2.16-8.21,6.13,6.13,0,0,0-8.21-2.15Z"/><path d="M449.36,251.38l-3.07-3.09"/><path d="M453.61,247.14l-3.08-3.09a6.18,6.18,0,0,0-4.24-1.76,6.12,6.12,0,0,0-4.24,1.76,6,6,0,0,0-1.76,4.24,6.27,6.27,0,0,0,1.76,4.25l3.07,3.09a6.21,6.21,0,0,0,4.24,1.75,6,6,0,0,0,6-6,6.28,6.28,0,0,0-1.75-4.24Z"/><path d="M604.55,169.64a1.37,1.37,0,1,0-1.14,1.27"/><path d="M610.55,169.64a8.73,8.73,0,0,0-.11-1c-.05-.32-.07-.66-.15-1a9.15,9.15,0,0,0-.68-1.61c0-.06-.07-.11-.1-.16A7.47,7.47,0,0,0,606,163a6.88,6.88,0,0,0-3.13-.66,7.14,7.14,0,0,0-3.35.9l-.17.09a7.38,7.38,0,0,0-1.37,1.06,8.07,8.07,0,0,0-1.18,1.54,7.89,7.89,0,0,0-.91,3.32,7.17,7.17,0,0,0,.22,2,7.81,7.81,0,0,0,.72,1.84,7.69,7.69,0,0,0,1.15,1.58,7,7,0,0,0,1.55,1.26,6.93,6.93,0,0,0,3.55,1h.31a4.46,4.46,0,0,0,2.31-.52,4.56,4.56,0,0,0,1.94-1.24,6,6,0,0,0,0-8.49,5.81,5.81,0,0,0-4.25-1.75h-.31l1.59.22-.29-.08,1.43.6-.26-.15,1.21.93a1.59,1.59,0,0,1-.29-.29l.93,1.22a2.71,2.71,0,0,1-.21-.37l.6,1.43a1.82,1.82,0,0,1-.11-.4l.21,1.59a1.87,1.87,0,0,1,0-.41l-.21,1.6a1.61,1.61,0,0,1,.09-.29l-.61,1.43a1.74,1.74,0,0,1,.11-.18l-.94,1.22a1.47,1.47,0,0,1,.21-.22l-1.21.94a2.07,2.07,0,0,1,.25-.15l-1.44.61a1.43,1.43,0,0,1,.28-.07l-1.59.21a1.7,1.7,0,0,1,.39,0l-1.6-.22a2,2,0,0,1,.48.14l-1.44-.61a1.63,1.63,0,0,1,.34.21l-1.21-.94a1.79,1.79,0,0,1,.27.28l-.94-1.22c.06.09.1.16.15.25l-.61-1.43a1.29,1.29,0,0,1,.08.28l-.22-1.6a1.34,1.34,0,0,1,0,.2,6,6,0,0,0,6,6,6.05,6.05,0,0,0,4.24-1.76,6.27,6.27,0,0,0,1.76-4.24Z"/><path d="M631.22,118.84l-.15-4.61"/><path d="M637.22,118.84l-.15-4.61c-.11-3.14-2.69-6.15-6-6s-6.12,2.64-6,6l.15,4.61c.11,3.14,2.69,6.15,6,6,3.16-.14,6.12-2.64,6-6Z"/><path d="M617.32,257.45l-3.08-1.54"/><path d="M620.35,252.27l-3.08-1.54a6.4,6.4,0,0,0-4.62-.6,6.13,6.13,0,0,0-3.59,2.76,6.07,6.07,0,0,0-.6,4.62,5.92,5.92,0,0,0,2.76,3.58l3.08,1.54a6.36,6.36,0,0,0,4.62.61,6,6,0,0,0,4.19-7.38,6,6,0,0,0-2.76-3.59Z"/><path d="M619.8,205.15l.49,4.57"/><path d="M613.8,205.15l.49,4.57a6.48,6.48,0,0,0,1.76,4.24,6,6,0,0,0,8.48,0,5.8,5.8,0,0,0,1.76-4.24l-.49-4.57a6.47,6.47,0,0,0-1.76-4.24,6.12,6.12,0,0,0-4.24-1.76,6.05,6.05,0,0,0-4.24,1.76,5.84,5.84,0,0,0-1.76,4.24Z"/><path d="M632.74,311.25a2.83,2.83,0,0,1-2-1.12"/><path d="M632.74,305.25l-.13,0,1.6.22a3.4,3.4,0,0,1-.71-.2l1.43.6a3.35,3.35,0,0,1-.63-.37l1.22.94a3.26,3.26,0,0,1-.52-.53,5.78,5.78,0,0,0-6.55-1.24,4.47,4.47,0,0,0-1.93,1.24,6,6,0,0,0-1.76,4.24l.21,1.6a6,6,0,0,0,1.55,2.65,6.92,6.92,0,0,0,2.14,1.73,12.94,12.94,0,0,0,1.88.8,12.73,12.73,0,0,0,2.2.34,5.8,5.8,0,0,0,5.48-3.69,4.61,4.61,0,0,0,.52-2.31A6.08,6.08,0,0,0,637,307l-1.22-.93a5.83,5.83,0,0,0-3-.82Z"/><path d="M618.82,348.05c-.76.13-.7-1.44,0-1.26"/><path d="M617.22,342.26h0l1.6-.22h-.12l1.6.22-.1,0,1.43.61-.06,0,1.22.94-.1-.09.94,1.21a.54.54,0,0,1-.07-.13l.6,1.44c0-.06,0-.12,0-.19l.22,1.6a1.31,1.31,0,0,1,0-.28l-.22,1.6.06-.23-.6,1.43a.75.75,0,0,1,.07-.12l-.94,1.21.1-.1-1.22.94.09,0-1.43.61.1,0-1.59.22h.11l-1.59-.21h0a4.52,4.52,0,0,0,2.39.1,4.38,4.38,0,0,0,2.23-.71,4.53,4.53,0,0,0,1.68-1.54,4.58,4.58,0,0,0,1.08-2l.21-1.6a5.89,5.89,0,0,0-.82-3l-.94-1.21a5.85,5.85,0,0,0-2.64-1.54,12.94,12.94,0,0,0-1.64-.23h-.08c-.22,0-1.41.16-1.63.21l-.08,0c-.11,0-1.38.56-1.47.62l-.06,0c-.09,0-1.17.89-1.24,1l0,.05a6.62,6.62,0,0,0-.5.64,7.67,7.67,0,0,0-.51.67l0,.07a15.77,15.77,0,0,0-.62,1.47.66.66,0,0,0,0,.15c-.08.35-.19,1.26-.22,1.63,0,0,0,.07,0,.1a.86.86,0,0,0,0,.16c0,.22.17,1.42.22,1.63,0,0,0,.05,0,.08l0,.07c0,.15.54,1.33.62,1.47l0,.08c.09.17.81,1.09.95,1.24l.1.1c.16.15,1.06.85,1.24.95s1.26.56,1.47.63l.08,0c.11,0,1.52.22,1.63.22a11.21,11.21,0,0,0,1.73-.22,6.73,6.73,0,0,0,3.59-2.75,4.51,4.51,0,0,0,.71-2.23,4.56,4.56,0,0,0-.11-2.4L624,345a6.07,6.07,0,0,0-2.15-2.15l-1.44-.61a6.16,6.16,0,0,0-3.19,0Z"/><path d="M648,380.8a3.31,3.31,0,0,1,.27-4.61"/><path d="M652.22,376.56l-.15-.18.93,1.22a4.54,4.54,0,0,1-.36-.6l.61,1.44a4.76,4.76,0,0,1-.26-.89l.22,1.59a4.13,4.13,0,0,1,0-.93L653,379.8a4.13,4.13,0,0,1,.24-.9l-.61,1.44a4.53,4.53,0,0,1,.34-.61L652,381a3.86,3.86,0,0,1,.48-.51,6.06,6.06,0,0,0,0-8.49,6.13,6.13,0,0,0-8.49,0,9.22,9.22,0,0,0-2.83,6.49,9.53,9.53,0,0,0,2.55,6.61,6,6,0,0,0,8.49,0,6.15,6.15,0,0,0,0-8.49Z"/><path d="M629.27,281.49c-1.35.83-2.7-2.05-1.19-2.55"/><path d="M626.24,276.31l-.17.08,1.44-.6-.25.06,1.59-.22h-.16l1.59.22a1.58,1.58,0,0,1-.31-.09l1.43.61-.21-.13,1.21.94a2.27,2.27,0,0,1-.31-.31l.93,1.21a2.27,2.27,0,0,1-.27-.48l.6,1.43a2.3,2.3,0,0,1-.14-.53l.22,1.6a2,2,0,0,1,0-.35l-.22,1.6a1.68,1.68,0,0,1,.09-.32l-.6,1.43a.82.82,0,0,1,.12-.2l-.93,1.21a.57.57,0,0,1,.11-.11l-1.21.93a1.26,1.26,0,0,1,.23-.13l-1.43.6.09,0a4.58,4.58,0,0,0,2-1.08,4.53,4.53,0,0,0,1.54-1.68,6.17,6.17,0,0,0,.61-4.62,6,6,0,0,0-2.76-3.59,5.87,5.87,0,0,0-4.62-.6A7.12,7.12,0,0,0,623.4,275a7,7,0,0,0-1.73,3,8,8,0,0,0,.73,5.71,7.52,7.52,0,0,0,2.91,3,7.06,7.06,0,0,0,7,0,6,6,0,0,0,2.15-8.21,6.09,6.09,0,0,0-3.59-2.76,6.36,6.36,0,0,0-4.62.61Z"/><path d="M862.61,355.93c0-1-.05-2-.07-3-.22-7.62-.59-15.22-2.27-22.68l-.33-1.39a98.56,98.56,0,0,0-7.06-19.33,120,120,0,0,0-11.3-18.6,154.48,154.48,0,0,0-15.29-17.73,202.06,202.06,0,0,0-19-16.77,265.35,265.35,0,0,0-22.55-15.69c-8.38-5.22-17-10-25.83-14.49-9.43-4.77-19.07-9.15-28.84-13.19q-15.6-6.43-31.63-11.76-16.92-5.67-34.17-10.24-18.11-4.83-36.47-8.6-19.15-3.94-38.52-6.83-20.1-3-40.34-5-20.91-2-41.9-3-19.75-.9-39.52-.9-21.44,0-42.86,1.07-20.91,1-41.74,3.14-20.14,2-40.16,5.11-19.25,3-38.33,7-18.24,3.84-36.26,8.71-17.11,4.65-33.95,10.34-15.88,5.4-31.39,11.86c-9.7,4.06-19.26,8.46-28.61,13.27-8.73,4.48-17.28,9.31-25.57,14.56a258.18,258.18,0,0,0-22.3,15.74,200.81,200.81,0,0,0-18.77,16.82,152.43,152.43,0,0,0-15,17.77,119,119,0,0,0-11,18.62,97.49,97.49,0,0,0-6.77,19.36A95.25,95.25,0,0,0,72.47,351c-.09,11.24-.48,22.59,1.84,33.64a95.81,95.81,0,0,0,6.36,19.45A116,116,0,0,0,91.3,422.83,149.82,149.82,0,0,0,106,440.72a196.08,196.08,0,0,0,18.47,16.94,255.94,255.94,0,0,0,22,15.87c8.21,5.29,16.68,10.17,25.33,14.69,9.28,4.85,18.77,9.3,28.4,13.41q15.39,6.56,31.22,12,16.72,5.79,33.8,10.49,17.92,5,36.13,8.86,19,4.1,38.24,7.13,20,3.17,40.08,5.27,20.81,2.19,41.69,3.31,21.51,1.15,43.06,1.22h3.06q21.56,0,43.09-1.08,20.87-1.05,41.65-3.17,20.06-2,40-5.14,19.14-3,38.11-7,18.12-3.85,36-8.75,17-4.66,33.69-10.38,15.76-5.41,31.15-11.9c9.62-4.08,19.11-8.5,28.39-13.32,8.67-4.5,17.17-9.35,25.41-14.6a261.77,261.77,0,0,0,22.21-15.79A205.82,205.82,0,0,0,826,441.93a159.81,159.81,0,0,0,15.16-17.82,126,126,0,0,0,11.29-18.66,103.2,103.2,0,0,0,7.21-19.39,93.55,93.55,0,0,0,2-9.94A122.73,122.73,0,0,0,862.61,355.93ZM861,346.25v.17l0-.14Z"/><path d="M287.76,39.16c-.1.7-.2,1.4-.29,2.11l-1.67-2.19Z"/><path d="M274.4,35.79c.11,1.46.23,2.93.35,4.39l-6.89,1.73A11.6,11.6,0,0,1,274.4,35.79Z"/><path d="M287.76,41.66l-2.83-.12c.13-1,.27-2,.42-3v0s0,0,0,0C286.18,39.57,287,40.61,287.76,41.66Z"/><path d="M315.79,440.83l-2,5.51c.31-1.37.59-2.9-.12-4.11s-2.88-1.48-3.37-.16q-5.14-71-14.62-141.64c17.81,40.12,11.95,87.48,28.7,128.06a11.86,11.86,0,0,1,1.24,4.59c0,4.28-5.24,7.15-9.36,6s-6.93-5.09-8.23-9.18"/><path d="M298.55,300.89l-.15.31.44.36C298.75,301.34,298.66,301.11,298.55,300.89Z"/><polygon class="cls-1" points="492.48 297.85 625.03 28.25 729.73 14.08 782.52 421.27 661.65 437.52 492.48 297.85"/><path d="M477.41,300.16l-.51,1,.63.52Z"/><path d="M666.22,200.55q-1.62-17.79-3.36-35.58.32,13.38.64,26.75l.21,8.73q1.8,19.73,3.45,39.44Q666.7,220.23,666.22,200.55Zm0,0q-1.62-17.79-3.36-35.58.32,13.38.64,26.75l.21,8.73q1.8,19.73,3.45,39.44Q666.7,220.23,666.22,200.55Zm0,0q-1.62-17.79-3.36-35.58.32,13.38.64,26.75l.21,8.73q1.8,19.73,3.45,39.44Q666.7,220.23,666.22,200.55Z"/><path d="M646.08,40.7c-.38.87-.71,1.75-1,2.65l-2.13-4.9H643l1.49-.21h0l1-.13C645.69,39,645.89,39.83,646.08,40.7Z"/><path d="M669.66,239.89a2.53,2.53,0,0,1-2.5,2.5,2.55,2.55,0,0,1-2.5-2.5q-.48-19.71-.95-39.44l-.21-8.73q-.32-13.38-.64-26.75,1.74,17.79,3.36,35.58Q668,220.21,669.66,239.89Z"/><path d="M672,385.67l-.11,0c0-.11.05-.22.07-.33C672,385.44,672,385.55,672,385.67Z"/><path d="M684.76,448.16c-.21-.26-.42-.51-.62-.78l-.19-.24a26.11,26.11,0,0,1-2.9-5l.9.23a6.63,6.63,0,0,1,2.79,4.68s0,.07,0,.1A7.08,7.08,0,0,1,684.76,448.16Z"/><path d="M740.51,0,616.75,16.76l-41.6,84.61L555.2,141.94,483.31,288.17q.38,9.48.77,18.95l103.63,85.56h0L616,416h0l41.95,34.63,23.3-3.13,1-.14,1.72-.23.79-.11.36,0,2.1-.28L796.52,432Zm-68.6,385.65c0-.11.05-.22.07-.33,0,.12,0,.23,0,.35Zm7.33,36.89c-1-7.34-1.87-14.69-2.81-22l-1.95-15.2a2.54,2.54,0,0,0-2.17-2.45c-1.17-.14-3.33,26-7,41.43l-54-44.61L583,356.37,508.06,294.5s53-107.71,53-107.72l20-40.57L633.31,39.75c.42-.84,1.93-.56,2.67-.54a21.22,21.22,0,0,0,5.08-.57c1-.21,1.62-.17,2.18.74.85,1.4.76,3.19,1.09,4.74.48,2.18.83,4.39,1.17,6.6.57,3.85.72,7.74,1.36,11.59q2.5,21.48,4.84,43,4.68,43,8.67,86.07,2.25,24.25,4.29,48.53-.48-19.71-.95-39.44l-.21-8.73q-.32-13.38-.64-26.75,1.74,17.79,3.36,35.58,1.78,19.66,3.44,39.34-1-43.3-2.08-86.6l-2.07-86.35c-.12-5-.46-10.19-1-15.25-.3-2.58-.66-5.16-1.08-7.72q-.33-1.92-.69-3.84c-.22-1.14-1.5-3.27-.18-4.16a3.26,3.26,0,0,1,1.39-.41c7.31-1,14.6-1.93,21.91-2.92l16.52-2.24,12.71-1.72,3.9-.53,49.57,382.39Z"/><path d="M672,385.67l-.11,0c0-.11.05-.22.07-.33C672,385.44,672,385.55,672,385.67Z"/><path d="M687.26,448.16c-.08,2-2.8,3.54-4.27,1.76-.64-.78-1.23-1.58-1.79-2.41l1-.14,1.72-.23.79-.11.36,0,2.1-.28A8.78,8.78,0,0,1,687.26,448.16Z"/><polygon class="cls-1" points="313.98 297.85 446.53 28.25 551.23 14.08 604.02 421.27 483.15 437.52 313.98 297.85"/><path d="M616,416h0l-4.71-36.31L581,146.21l-5.82-44.84L562,0,438.25,16.76l-41.6,84.61L376.7,141.94l-78.15,159-.15.31.44.36,110.37,91.12L437.45,416l41.95,34.64L618,432ZM486.89,424.4l-54.15-44.71L404.5,356.37,329.56,294.5l53-107.71,20-40.58.36-.73L404,143.2c.6-1.22,1.19-2.43,1.79-3.64l2.37-4.82c.95-1.94,1.9-3.87,2.86-5.81,1.08-2.21,2.16-4.41,3.25-6.62,1.19-2.41,2.37-4.82,3.56-7.24l3.77-7.67,3.9-7.93,3.93-8,3.87-7.88c1.24-2.53,2.48-5,3.73-7.58l3.48-7.08,3.15-6.41L446.34,57l2.22-4.51c.48-1,.94-2,1.44-2.93a15.61,15.61,0,0,1,2.57-3.7A5.43,5.43,0,0,1,455,44c.45-.07,1.43-.24,1.56.4,3.47,16.9,4.45,34.21,5.72,51.39q2.19,29.67,4.39,59.34,4.41,59.64,8.81,119.29,1,12.87,1.9,25.73l.12,1.56q1.49,20,3,39.92c.24,3.17,5.13,3.25,5,0q-.71-17.26-1.4-34.52-.39-9.48-.77-18.95-1.37-33.37-2.72-66.74L475.7,101.22q-.68-16.69-1.36-33.39c0-.3,0-.6,0-.9-.19-5-.37-10-1-14.91-.3-1.17-.36-2.44-.59-3.64s-.52-2.44-.83-3.64-.71-2.41-1.12-3.59a17.82,17.82,0,0,1-1.19-3.3.19.19,0,0,1,0-.08s.05,0,.07,0c.71-.08,1.41-.19,2.11-.28l4.3-.58,6.07-.83,7.37-1,8.21-1.12,8.6-1.16,8.53-1.16,8-1.08,7-.95,5.58-.76,3.69-.5,1.33-.18L555.2,141.94,561,186.78h0l22,169.58,4.71,36.31h0L590,410.54Z"/><polygon class="cls-1" points="135.48 297.85 268.03 28.25 372.73 14.08 425.52 421.27 304.65 437.52 135.48 297.85"/><path d="M285.35,38.49v0h0S285.36,38.5,285.35,38.49Z"/><path d="M285.8,39.08l1.67,2.19c.09-.71.19-1.41.29-2.11Z"/><path d="M437.45,416l-4.71-36.31L402.47,146.21l-5.82-44.84L383.51,0,259.75,16.76,119.9,301.2l181,149.44L439.52,432ZM285.35,38.53v0s0,0,0,0l.43.56,2,.08c-.1.7-.2,1.4-.29,2.11l.29.39h-.34c0-.13,0-.26.05-.38l-1.67-2.19-.52,0C285.3,38.88,285.32,38.71,285.35,38.53Zm39.27,383.69q-.42-1.14-.81-2.28a166.82,166.82,0,0,1-4.58-16.4c-5.06-22.23-6.38-45.07-10.52-67.45a169.47,169.47,0,0,0-9.87-34.53l-.44-.36.15-.31c-.23-.58-.48-1.15-.73-1.72-1-2.2-5-1.16-4.66,1.26q3.69,27.54,6.73,55.17t5.42,55.31q.51,5.86,1,11.75L151.06,294.5,272.84,46.81q2.7,29.46,7.36,58.71,1.57,9.83,3.37,19.62c.5,2.74,5.19,2.15,4.91-.66a356.2,356.2,0,0,1-.41-66.28q.81-9.21,2.1-18.38a3.11,3.11,0,0,0-.29-1.91L362,28.15,376.7,141.94l5.82,44.85,22,169.58,4.71,36.31,2.31,17.86Z"/></g></g></svg>